<?xml version="1.0" encoding="utf-8" ?><svg xmlns="http://www.w3.org/2000/svg" xmlns:xlink="http://www.w3.org/1999/xlink" width="1024" height="1024" viewBox="0 0 1024 1024"><path fill="#039CF6" d="M489.144 0L543.021 0C545.125 1.44648 573.286 3.69995 578.756 4.33314C776.414 27.2115 946.543 177.223 1002.49 366.869C1007.18 382.782 1013.81 407.634 1015.74 424.153C1017.75 434.129 1018.89 444.382 1020.38 454.431C1020.83 457.438 1021.84 467.77 1022.64 469.822L1023.17 469.407L1023.21 468.95C1023.33 467.53 1023.28 467.162 1024 465.905L1024 541.437L1023.85 542.149C1022.03 551.129 1021.81 562.956 1020.76 572.33C1006.49 698.263 942.898 816.345 846.813 898.758C785.855 951.043 712.818 989.725 634.8 1008.9C613.484 1014.14 592.928 1017.56 571.248 1020.78C571.355 1020.77 568.698 1023.69 568.376 1024L457.896 1024L457.756 1023.37C457.178 1022.71 456.026 1021.39 455.216 1021.19C445.607 1018.89 434.882 1018.3 425.122 1016.24C363.417 1006.8 297.814 979.348 245.204 947.73C107.046 864.7 18.3874 720.693 2.41179 560.847C2.04937 557.221 1.58337 551.832 0.756895 548.294L0 548.802L0 474.579L0.549514 474.733C1.99313 473.167 3.13377 458.8 3.52714 455.359C6.20599 432.506 10.2659 409.598 16.0015 387.284C27.1363 343.966 44.9748 299.213 66.8871 260.15C89.2277 220.324 120.957 178.745 153.502 146.755C216.526 84.8087 296.48 38.8543 382.155 16.9356C411.166 9.52741 440.697 4.42631 470.495 1.99642C475.837 1.56082 484.234 1.49327 489.144 0ZM664.661 292.707C653.921 301.593 649.153 307.761 647.794 321.787C635.414 316.171 626.752 311.528 612.706 316.554C591.123 324.276 584.042 354.199 607.865 364.769C610.779 366.062 614.18 366.534 617.359 366.756C633.789 367.029 650.278 366.308 666.721 366.64C676.018 366.827 685.425 366.549 694.695 367.047L833.181 367.057C853.636 367.076 874.088 366.933 894.543 366.953C899.605 366.958 899.501 367.011 903.813 369.422C895.488 341.073 875.273 305.385 859.276 280.392C853.739 271.741 846.473 263.08 840.526 254.651C840.154 254.327 836.355 249.524 835.798 248.811C832.518 244.619 829.952 241.751 826.064 238.082C824.927 239.047 824.76 240.05 824.308 241.407C823.167 242.421 821.11 242.845 819.591 242.971C793.008 245.179 769.973 244.973 746.752 260.556C731.644 273.178 724.142 284.62 716.642 303.04C703.838 284.799 683.483 281.106 664.661 292.707ZM106.371 463.443C121.112 462.816 139.583 463.491 154.663 463.493L244.587 463.483C256.043 463.311 267.523 463.687 278.984 463.532C285.603 463.443 292.026 462.056 297.166 457.586C304.971 450.799 308.511 439.547 303.956 429.88C301.999 425.726 300.226 423.665 297.182 420.402C286.041 411.721 274.002 413.909 260.009 414.012C251.874 352.727 169.386 349.556 158.215 409.826C157.821 411.952 157.597 414.319 157.325 416.476C147.443 416.438 137.487 416.469 127.614 416.188C119.943 416.645 115.738 417.819 109.436 422.731C108.893 420.625 108.629 418.538 107.232 416.98L106.091 416.512C105.43 418.974 104.982 426.588 104.911 426.756C99.9193 438.459 99.9717 450.334 98.0778 462.509C93.914 492.401 95.481 541.927 100.029 571.702C110.028 563.077 115.122 559.903 119.191 546.307C125.242 526.089 120.809 500.613 114.499 480.741C112.87 475.613 108.935 468.265 106.371 463.443Z"/><path fill="#6FE110" fill-opacity="0.98823529" d="M98.0778 462.509L98.8783 462.76L99.6507 462.342C101.335 462.669 104.807 463.451 106.371 463.443C108.935 468.265 112.87 475.613 114.499 480.741C120.809 500.613 125.242 526.089 119.191 546.307C115.122 559.903 110.028 563.077 100.029 571.702C95.481 541.927 93.914 492.401 98.0778 462.509Z"/><path fill="#00B442" d="M840.526 254.651C855.595 266.324 876.205 287.303 890.375 300.915L983.719 391.581C992.771 400.347 1001.52 409.339 1010.13 418.534C1011.87 420.396 1013.76 422.605 1015.74 424.153C1017.75 434.129 1018.89 444.382 1020.38 454.431C1020.83 457.438 1021.84 467.77 1022.64 469.822L1023.17 469.407L1023.21 468.95C1023.33 467.53 1023.28 467.162 1024 465.905L1024 541.437L1023.85 542.149C1022.03 551.129 1021.81 562.956 1020.76 572.33C1006.49 698.263 942.898 816.345 846.813 898.758C785.855 951.043 712.818 989.725 634.8 1008.9C613.484 1014.14 592.928 1017.56 571.248 1020.78C571.355 1020.77 568.698 1023.69 568.376 1024L457.896 1024L457.756 1023.37C457.178 1022.71 456.026 1021.39 455.216 1021.19C445.607 1018.89 434.882 1018.3 425.122 1016.24C422.286 1012.57 410.885 1002.77 406.862 998.711C397.295 989.066 387.321 979.526 377.698 969.92L239.297 833.362C245.177 836.234 247.608 840.979 254.036 841.682C288.711 868.295 325.619 888.845 366.83 903.51C372.638 905.577 384.172 909.783 390.061 910.905C397.309 913.613 405.132 915.632 412.679 917.405C503.171 938.668 599.428 930.402 684.503 892.592C701.957 884.834 711.094 880.474 727.266 870.545C715.913 857.373 704.628 850.195 696.425 833.036C685.191 809.536 684.7 778.956 694.162 754.8C696.874 747.15 702.228 740.009 704.538 732.255C712.912 704.146 707.633 675.999 685.656 655.833C665.38 637.226 646.576 636.456 620.72 636.478L588.662 636.513C577.21 636.477 564.285 636.368 553.395 632.727C511.987 618.881 506.542 561.711 518.558 526.216C522.956 512.496 532.62 498.93 546.734 494.042C566.154 487.317 584.986 484.563 600.535 469.475C607.392 462.821 612.406 456.622 617.926 448.551C625.996 436.75 632.516 422.472 644.962 414.571C656.332 407.6 669.604 404.989 682.445 402.136C687.843 400.937 693.219 400.001 698.166 397.469C695.025 387.252 694.369 377.709 694.695 367.047L833.181 367.057C853.636 367.076 874.088 366.933 894.543 366.953C899.605 366.958 899.501 367.011 903.813 369.422C895.488 341.073 875.273 305.385 859.276 280.392C853.739 271.741 846.473 263.08 840.526 254.651Z"/><path fill="#0031A7" d="M840.526 254.651C855.595 266.324 876.205 287.303 890.375 300.915L983.719 391.581C992.771 400.347 1001.52 409.339 1010.13 418.534C1011.87 420.396 1013.76 422.605 1015.74 424.153C1017.75 434.129 1018.89 444.382 1020.38 454.431C1020.83 457.438 1021.84 467.77 1022.64 469.822L1023.17 469.407L1023.21 468.95C1023.33 467.53 1023.28 467.162 1024 465.905L1024 541.437L1023.85 542.149C1022.03 551.129 1021.81 562.956 1020.76 572.33C1006.49 698.263 942.898 816.345 846.813 898.758C785.855 951.043 712.818 989.725 634.8 1008.9C613.484 1014.14 592.928 1017.56 571.248 1020.78C571.355 1020.77 568.698 1023.69 568.376 1024L457.896 1024L457.756 1023.37C457.178 1022.71 456.026 1021.39 455.216 1021.19C445.607 1018.89 434.882 1018.3 425.122 1016.24C422.286 1012.57 410.885 1002.77 406.862 998.711C397.295 989.066 387.321 979.526 377.698 969.92L239.297 833.362C245.177 836.234 247.608 840.979 254.036 841.682C288.711 868.295 325.619 888.845 366.83 903.51C372.638 905.577 384.172 909.783 390.061 910.905C397.309 913.613 405.132 915.632 412.679 917.405C503.171 938.668 599.428 930.402 684.503 892.592C701.957 884.834 711.094 880.474 727.266 870.545C738.505 864.458 756.308 851.787 766.836 843.937C825.94 798.688 873.476 734.941 900.431 665.589C906.346 650.372 910.956 632.84 915.701 617.066C920.668 598.613 924.986 573.248 926.583 554.287C933.522 501.469 924.234 418.813 903.813 369.422C895.488 341.073 875.273 305.385 859.276 280.392C853.739 271.741 846.473 263.08 840.526 254.651Z"/><path fill="#6FE110" d="M694.695 367.047L833.181 367.057C853.636 367.076 874.088 366.933 894.543 366.953C899.605 366.958 899.501 367.011 903.813 369.422C924.234 418.813 933.522 501.469 926.583 554.287C918.538 552.568 910.027 549.639 902.725 546.569C885.131 539.172 878.778 532.028 873.016 514.218C864.813 488.862 835.346 500.746 816.367 488.532C796.519 475.759 799.489 452.589 780.484 440.954C767.261 433.906 742.213 440.194 726.916 432.626C711.46 424.979 704.07 412.795 698.166 397.469C695.025 387.252 694.369 377.709 694.695 367.047Z"/><path fill="#6FE110" d="M766.836 843.937C767.799 829.786 766.785 810.959 769.263 798.258C776.998 758.598 822.149 753.389 838.052 722.595C846.36 706.721 841.959 689.478 843.76 672.978C846.391 648.883 866.545 621.493 889.323 612.836C898.269 609.436 907.832 613.043 915.701 617.066C910.956 632.84 906.346 650.372 900.431 665.589C873.476 734.941 825.94 798.688 766.836 843.937Z"/><path fill="#039CF6" d="M489.144 0L543.021 0C545.125 1.44648 573.286 3.69995 578.756 4.33314C776.414 27.2115 946.543 177.223 1002.49 366.869C1007.18 382.782 1013.81 407.634 1015.74 424.153C1013.76 422.605 1011.87 420.396 1010.13 418.534C1001.52 409.339 992.771 400.347 983.719 391.581L890.375 300.915C876.205 287.303 855.595 266.324 840.526 254.651C840.154 254.327 836.355 249.524 835.798 248.811C832.518 244.619 829.952 241.751 826.064 238.082C824.927 239.047 824.76 240.05 824.308 241.407C823.167 242.421 821.11 242.845 819.591 242.971C793.008 245.179 769.973 244.973 746.752 260.556C736.328 228.917 705.298 231.266 712.579 186.368C718.088 175.9 724.305 164.563 733.699 157.106C732.946 156.264 727.054 153.117 725.539 152.12C688.73 127.891 646.184 110.95 603.594 100.128C597.576 98.5991 589.81 97.1821 584.439 94.4738C576.767 101.268 565.682 110.61 560.629 119.208C509.214 112.646 460.86 116.531 410.902 130.933C395.569 135.353 383.731 140.913 369.489 145.507C362.362 140.236 360.618 130.505 356.092 123.103C353.882 123.958 352.359 124.731 349.995 124.859C346.758 125.591 301.048 148.564 296.569 151.837C305.451 157.743 312.224 163.342 313.763 173.972C315.973 189.242 314.215 190.611 301.477 195.445C290.021 199.793 283.77 214.605 279.547 225.281C264.985 230.417 245.43 238.22 238.664 252.912C233.35 264.452 234.286 275.668 233.818 288.074C233.054 308.288 225.716 322.59 206.025 329.718C198.108 332.584 189.747 333.093 181.549 334.666C161.913 338.434 148.159 351.273 139.869 369.099C132.596 384.741 133.409 399.509 127.614 416.188C119.943 416.645 115.738 417.819 109.436 422.731C108.893 420.625 108.629 418.538 107.232 416.98L106.091 416.512C105.43 418.974 104.982 426.588 104.911 426.756C99.9193 438.459 99.9717 450.334 98.0778 462.509C93.914 492.401 95.481 541.927 100.029 571.702C101.93 590.86 112.026 629.932 118.725 647.856C143.689 721.545 187.399 785.065 246.383 835.009C248.863 837.109 251.706 839.458 254.036 841.682C247.608 840.979 245.177 836.234 239.297 833.362L377.698 969.92C387.321 979.526 397.295 989.066 406.862 998.711C410.885 1002.77 422.286 1012.57 425.122 1016.24C363.417 1006.8 297.814 979.348 245.204 947.73C107.046 864.7 18.3874 720.693 2.41179 560.847C2.04937 557.221 1.58337 551.832 0.756895 548.294L0 548.802L0 474.579L0.549514 474.733C1.99313 473.167 3.13377 458.8 3.52714 455.359C6.20599 432.506 10.2659 409.598 16.0015 387.284C27.1363 343.966 44.9748 299.213 66.8871 260.15C89.2277 220.324 120.957 178.745 153.502 146.755C216.526 84.8087 296.48 38.8543 382.155 16.9356C411.166 9.52741 440.697 4.42631 470.495 1.99642C475.837 1.56082 484.234 1.49327 489.144 0Z"/><path fill="#6FE110" d="M296.569 151.837C305.451 157.743 312.224 163.342 313.763 173.972C315.973 189.242 314.215 190.611 301.477 195.445C290.021 199.793 283.77 214.605 279.547 225.281C264.985 230.417 245.43 238.22 238.664 252.912C233.35 264.452 234.286 275.668 233.818 288.074C233.054 308.288 225.716 322.59 206.025 329.718C198.108 332.584 189.747 333.093 181.549 334.666C161.913 338.434 148.159 351.273 139.869 369.099C132.596 384.741 133.409 399.509 127.614 416.188C119.943 416.645 115.738 417.819 109.436 422.731C108.893 420.625 108.629 418.538 107.232 416.98L106.091 416.512C106.205 415.201 106.339 414.734 106.623 413.459C130.65 305.541 203.905 210.607 296.569 151.837Z"/><path fill="#6FE110" d="M733.699 157.106C762.795 175.595 789.463 198.956 813.149 223.849C815.422 226.238 824.94 235.928 826.064 238.082C824.927 239.047 824.76 240.05 824.308 241.407C823.167 242.421 821.11 242.845 819.591 242.971C793.008 245.179 769.973 244.973 746.752 260.556C736.328 228.917 705.298 231.266 712.579 186.368C718.088 175.9 724.305 164.563 733.699 157.106Z"/><path fill="#6FE110" d="M349.995 124.859C355.655 121.461 365.618 117.895 372.125 115.454C429.106 94.0776 491.659 85.888 552.24 91.4646C563.025 92.4574 573.603 94.1225 584.439 94.4738C576.767 101.268 565.682 110.61 560.629 119.208C509.214 112.646 460.86 116.531 410.902 130.933C395.569 135.353 383.731 140.913 369.489 145.507C362.362 140.236 360.618 130.505 356.092 123.103C353.882 123.958 352.359 124.731 349.995 124.859Z"/><path fill="#00B442" d="M106.371 463.443C121.112 462.816 139.583 463.491 154.663 463.493L244.587 463.483C225.152 486.313 206.446 506.958 209.199 539.22C211.174 564.214 226.644 581.232 244.616 596.892C265.384 614.988 280.038 612.977 305.516 608.436C316.567 606.466 337.416 615.327 346.109 622.233C361.504 634.463 364.318 654.808 377.774 668.109C393.551 680.603 421.184 665.273 438.413 688.922C443.534 695.703 446.153 703.129 446.851 711.668C448.787 732.931 436.642 748.278 435.416 769.741C433.403 804.998 462.663 824.362 438.54 858.124C422.906 880.005 373.797 869.432 382.36 897.516C383.667 900.077 389.569 909.2 390.061 910.905C384.172 909.783 372.638 905.577 366.83 903.51C325.619 888.845 288.711 868.295 254.036 841.682C251.706 839.458 248.863 837.109 246.383 835.009C187.399 785.065 143.689 721.545 118.725 647.856C112.026 629.932 101.93 590.86 100.029 571.702C110.028 563.077 115.122 559.903 119.191 546.307C125.242 526.089 120.809 500.613 114.499 480.741C112.87 475.613 108.935 468.265 106.371 463.443Z"/><path fill="#6FE110" d="M118.725 647.856C137.333 648.479 156.672 660.718 169.014 673.645C180.576 685.755 189.329 702.292 207.913 702.08C221.531 701.925 237.066 698.852 247.325 710.77C267.515 734.224 254.027 763.855 273.569 791.685C294.715 821.801 323.742 805.268 345.248 825.738C360.681 840.428 368.621 879.337 382.36 897.516C383.667 900.077 389.569 909.2 390.061 910.905C384.172 909.783 372.638 905.577 366.83 903.51C325.619 888.845 288.711 868.295 254.036 841.682C251.706 839.458 248.863 837.109 246.383 835.009C187.399 785.065 143.689 721.545 118.725 647.856Z"/><path fill="#00B442" d="M127.614 416.188C133.409 399.509 132.596 384.741 139.869 369.099C148.159 351.273 161.913 338.434 181.549 334.666C189.747 333.093 198.108 332.584 206.025 329.718C225.716 322.59 233.054 308.288 233.818 288.074C234.286 275.668 233.35 264.452 238.664 252.912C245.43 238.22 264.985 230.417 279.547 225.281C277.707 232.638 279.836 241.853 283.721 248.254C297.726 271.357 327.617 270.129 349.264 280.571C371.309 291.205 388.718 323.782 381.958 347.83C371.723 384.243 333.34 413.635 297.182 420.402C286.041 411.721 274.002 413.909 260.009 414.012C251.874 352.727 169.386 349.556 158.215 409.826C157.821 411.952 157.597 414.319 157.325 416.476C147.443 416.438 137.487 416.469 127.614 416.188Z"/><path fill="#00B442" d="M369.489 145.507C383.731 140.913 395.569 135.353 410.902 130.933C460.86 116.531 509.214 112.646 560.629 119.208L560.436 119.758C557.993 126.898 559.591 133.337 559.644 140.645C559.73 152.383 556.13 164.522 548.835 173.81C538.054 187.539 520.03 190.645 504.519 196.295C490.583 201.371 482.572 212.401 472.522 222.58C459.497 235.724 440.748 243.385 422.527 237.159C413.561 234.181 406.769 227.978 402.624 219.518C395.839 205.666 399.25 190.501 397.228 175.748C394.946 159.096 381.678 154.133 369.489 145.507Z"/><path fill="#00B442" d="M712.579 186.368C705.298 231.266 736.328 228.917 746.752 260.556C731.644 273.178 724.142 284.62 716.642 303.04C703.838 284.799 683.483 281.106 664.661 292.707C659.344 285.076 654.178 277.242 646.387 271.791C635.003 263.522 624.563 260.965 622.236 245.424C617.319 212.586 644.261 213.389 667.664 209.705C679.151 207.897 693.46 205.743 702.686 198.075C706.258 195.106 709.744 190.203 712.579 186.368Z"/></svg>