<?xml version="1.0" encoding="utf-8" ?><svg xmlns="http://www.w3.org/2000/svg" xmlns:xlink="http://www.w3.org/1999/xlink" width="1024" height="1024" viewBox="0 0 1024 1024"><path d="M1005.28 536.429C993.779 769.338 820.996 962.495 590.804 999.778C360.612 1037.06 135.693 908.315 51.2673 690.943C-33.1585 473.57 45.8984 226.763 240.91 98.8998C435.921 -28.9636 693.784 -3.06482 859.472 161.026C859.534 161.582 859.599 162.557 859.98 163.012C873.737 179.469 888.797 194.601 901.59 211.903C954.84 283.922 991.372 368.692 1000.76 458.166C1001.09 461.322 1001.86 465.05 1002.08 467.942C1002.4 471.98 1002.01 476.444 1002.26 480.676C1002.57 485.739 1004.14 491.672 1004.45 496.493C1004.78 501.813 1004.73 508.862 1004.68 514.236C1004.62 521.099 1005.04 529.392 1004.49 536.011L1005.28 536.429Z"/><path fill="#D9B089" d="M82.6003 319.931C136.16 199.219 242.029 105.204 367.621 64.9254C509.617 19.3862 665.297 42.5963 786.075 130.337C789.942 132.43 799.744 140.093 803.05 143.33C843.619 172.748 881.668 218.114 908.768 260.18C915.836 271.151 924.287 287.269 930.548 299.023C928.327 300.418 925.985 301.566 923.617 302.687C896.203 315.673 869.057 329.489 841.239 341.578C842.586 344.537 847.705 357.883 848.993 359.161L848.807 359.463C862.299 389.495 872.657 428.047 875.565 460.878L875.414 461.304C878.655 486.838 878.528 504.122 878.452 529.737L878.031 530.105C877.259 564.351 871.528 596.553 860.096 628.888C858.089 634.563 855.511 642.638 852.952 647.844C893.058 632.546 935.617 612.05 974.681 594.099C973.98 597.825 970.858 616.647 969.768 618.829C955.85 679.587 926.16 745.938 888.268 795.611C844.917 852.439 785.762 900.351 721.816 931.637C622.824 981.385 510.813 993.105 403.032 968.793C322.426 950.079 242.558 905.691 183.745 847.543C174.542 838.445 166.33 830.566 157.986 820.617C154.938 818.046 142.784 802.55 139.947 798.931C132.975 790.889 127.238 781.868 121.095 773.202C106.573 752.715 95.9411 730.834 84.8059 708.403C78.8219 695.946 73.318 681.573 68.4776 668.603C66.4284 663.113 64.9409 656.499 62.892 650.692C52.8771 616.168 46.9083 585.489 43.9028 549.625C43.1365 543.509 42.8134 536.1 42.5467 529.94C41.8072 478.549 44.7109 435.381 58.5327 385.222C62.6709 370.204 68.391 354.876 73.4941 340.096C76.746 333.907 78.891 326.445 82.6003 319.931Z"/><path fill="#F59C34" d="M82.6003 319.931C136.16 199.219 242.029 105.204 367.621 64.9254C509.617 19.3862 665.297 42.5963 786.075 130.337C789.942 132.43 799.744 140.093 803.05 143.33C843.619 172.748 881.668 218.114 908.768 260.18C915.836 271.151 924.287 287.269 930.548 299.023C928.327 300.418 925.985 301.566 923.617 302.687C896.203 315.673 869.057 329.489 841.239 341.578L840.885 341.742C830.721 346.785 820.027 350.766 809.645 355.328C780.361 368.196 750.223 379.009 720.23 390.097C699.908 397.609 679.214 405.182 658.609 411.884C552.194 446.502 443.276 474.672 333.259 495.167C269.683 507.126 207.894 517.409 143.358 523.568C115.817 526.162 88.0048 528.329 60.3551 529.398C54.5177 529.623 48.3653 530.018 42.5467 529.94C41.8072 478.549 44.7109 435.381 58.5327 385.222C62.6709 370.204 68.391 354.876 73.4941 340.096C76.746 333.907 78.891 326.445 82.6003 319.931Z"/><path fill="#C4671A" d="M82.6003 319.931C136.16 199.219 242.029 105.204 367.621 64.9254C509.617 19.3862 665.297 42.5963 786.075 130.337C789.942 132.43 799.744 140.093 803.05 143.33C769.051 159.704 729.864 176.552 694.552 190.174C690.601 187.773 673.96 180.1 672.374 177.613L669.99 178.504C660.045 182.323 650.167 185.972 640.145 189.588C499.075 240.495 356.513 278.869 208.364 303.278C198.109 305.574 86.6308 321.197 82.6003 319.931Z"/><path fill="#F59C34" d="M208.364 303.278C208.795 301.391 209.822 299.866 210.91 298.257C260.599 224.73 344.636 170.992 430.783 152.276C495.924 138.123 566.097 141.084 629.162 161.898C640.635 165.685 660.155 172.167 669.99 178.504C660.045 182.323 650.167 185.972 640.145 189.588C499.075 240.495 356.513 278.869 208.364 303.278Z"/><path fill="#5E1F07" d="M786.075 130.337C789.942 132.43 799.744 140.093 803.05 143.33C769.051 159.704 729.864 176.552 694.552 190.174C690.601 187.773 673.96 180.1 672.374 177.613C682.121 173.215 695.55 169.061 705.901 164.591C723.272 157.09 741.21 149.94 758.569 142.416C764.449 139.867 781.692 133.177 786.075 130.337Z"/><path fill="#C4671A" d="M803.05 143.33C843.619 172.748 881.668 218.114 908.768 260.18C915.836 271.151 924.287 287.269 930.548 299.023C928.327 300.418 925.985 301.566 923.617 302.687C896.203 315.673 869.057 329.489 841.239 341.578L840.885 341.742C813.197 286.245 752.039 216.074 694.504 190.45L694.552 190.174C729.864 176.552 769.051 159.704 803.05 143.33Z"/><path fill="#C4671A" d="M73.4941 340.096C112.884 336.36 152.794 332.074 191.794 325.229C179.54 349.312 166.655 376.183 159.047 402.056C148.109 439.262 140.939 484.628 143.358 523.568C115.817 526.162 88.0048 528.329 60.3551 529.398C54.5177 529.623 48.3653 530.018 42.5467 529.94C41.8072 478.549 44.7109 435.381 58.5327 385.222C62.6709 370.204 68.391 354.876 73.4941 340.096Z"/><path fill="#63230A" d="M669.99 178.504L672.374 177.613C673.96 180.1 690.601 187.773 694.552 190.174L694.504 190.45C665.529 200.334 637.195 211.77 608.241 221.579C531.322 247.636 453.349 270.677 374.262 289.169C337.752 297.706 301.233 306.015 264.349 312.879C240.391 317.498 215.761 320.745 191.794 325.229C152.794 332.074 112.884 336.36 73.4941 340.096C76.746 333.907 78.891 326.445 82.6003 319.931C86.6308 321.197 198.109 305.574 208.364 303.278C356.513 278.869 499.075 240.495 640.145 189.588C650.167 185.972 660.045 182.323 669.99 178.504Z"/><path fill="#C4671A" d="M974.681 594.099C973.98 597.825 970.858 616.647 969.768 618.829C955.85 679.587 926.16 745.938 888.268 795.611C844.917 852.439 785.762 900.351 721.816 931.637C622.824 981.385 510.813 993.105 403.032 968.793C322.426 950.079 242.558 905.691 183.745 847.543C174.542 838.445 166.33 830.566 157.986 820.617C160.166 819.512 169.938 819.272 172.862 819.176C205.41 818.109 237.808 815.643 270.249 812.919C278.574 812.22 286.916 810.801 295.219 810.161C324.934 805.98 354.832 803.012 384.429 797.782C463.032 783.893 541.89 769.221 618.743 747.418C639.176 741.621 659.603 735.786 679.556 728.48C686.007 737.972 690.755 744.15 700.345 750.57C746.997 781.803 810.195 746.058 801.383 688.747C801.579 688.459 801.775 688.171 801.971 687.882L839.428 673.757L840.179 673.408C842.034 668.1 849.413 653.497 852.355 648.27L852.952 647.844C893.058 632.546 935.617 612.05 974.681 594.099Z"/><path fill="#F59C34" d="M839.428 673.757C840.215 678.113 815.358 715.034 811.102 721.495C756.673 804.113 675.634 853.932 578.656 872.969C490.119 890.35 399.683 869.846 321.243 826.465C313.459 822.167 302.407 815.291 295.219 810.161C324.934 805.98 354.832 803.012 384.429 797.782C463.032 783.893 541.89 769.221 618.743 747.418C639.176 741.621 659.603 735.786 679.556 728.48C686.007 737.972 690.755 744.15 700.345 750.57C746.997 781.803 810.195 746.058 801.383 688.747C801.579 688.459 801.775 688.171 801.971 687.882L839.428 673.757Z"/><path fill="#63230A" d="M974.681 594.099C973.98 597.825 970.858 616.647 969.768 618.829L969 618.135C963.923 619.32 956.08 624.06 951.13 626.383C918.552 641.669 885.031 654.877 851.878 668.854C848.1 670.447 844.048 672.052 840.179 673.408C842.034 668.1 849.413 653.497 852.355 648.27L852.952 647.844C893.058 632.546 935.617 612.05 974.681 594.099Z"/><path fill="#D9B089" d="M840.885 341.742L841.239 341.578C842.586 344.537 847.705 357.883 848.993 359.161L848.807 359.463C862.299 389.495 872.657 428.047 875.565 460.878L875.414 461.304C866.539 465.342 857.63 468.797 848.654 472.52C818.446 485.047 788.141 496.802 757.278 507.795C569.173 574.795 373.378 621.323 174.678 642.131C171.791 642.434 168.713 642.951 165.846 643.071L165.643 642.928C146.355 644.644 127.328 646.209 107.999 647.468C93.8528 648.389 76.789 648.529 62.892 650.692C52.8771 616.168 46.9083 585.489 43.9028 549.625C43.1365 543.509 42.8134 536.1 42.5467 529.94C48.3653 530.018 54.5177 529.623 60.3551 529.398C88.0048 528.329 115.817 526.162 143.358 523.568C207.894 517.409 269.683 507.126 333.259 495.167C443.276 474.672 552.194 446.502 658.609 411.884C679.214 405.182 699.908 397.609 720.23 390.097C750.223 379.009 780.361 368.196 809.645 355.328C820.027 350.766 830.721 346.785 840.885 341.742Z"/><path fill="#63230A" d="M840.885 341.742L841.239 341.578C842.586 344.537 847.705 357.883 848.993 359.161L848.807 359.463C834.939 365.06 821.237 372.172 807.118 377.972C609.57 459.126 399.291 510.07 187.902 538.481C174.861 540.234 158.462 542.536 145.517 543.08C113.84 546.742 75.5268 548.366 43.9028 549.625C43.1365 543.509 42.8134 536.1 42.5467 529.94C48.3653 530.018 54.5177 529.623 60.3551 529.398C88.0048 528.329 115.817 526.162 143.358 523.568C207.894 517.409 269.683 507.126 333.259 495.167C443.276 474.672 552.194 446.502 658.609 411.884C679.214 405.182 699.908 397.609 720.23 390.097C750.223 379.009 780.361 368.196 809.645 355.328C820.027 350.766 830.721 346.785 840.885 341.742Z"/><path fill="#9C836F" d="M43.9028 549.625C75.5268 548.366 113.84 546.742 145.517 543.08C142.732 547.538 150.829 590.845 152.656 598.783C154.613 607.285 156.781 615.804 159.458 624.109C161.462 630.322 164.065 636.613 165.643 642.928C146.355 644.644 127.328 646.209 107.999 647.468C93.8528 648.389 76.789 648.529 62.892 650.692C52.8771 616.168 46.9083 585.489 43.9028 549.625Z"/><path fill="#C4671A" d="M165.846 643.071C168.713 642.951 171.791 642.434 174.678 642.131C373.378 621.323 569.173 574.795 757.278 507.795C788.141 496.802 818.446 485.047 848.654 472.52C857.63 468.797 866.539 465.342 875.414 461.304C878.655 486.838 878.528 504.122 878.452 529.737L878.031 530.105C864.232 535.524 850.219 542.185 836.558 547.331C664.411 612.181 485.332 661.849 303.183 688.57C266.814 693.901 229.923 697.403 193.486 700.931L193.069 700.894C189.822 693.707 184.79 685.292 181.084 678.102C174.907 666.12 170.285 655.731 165.846 643.071Z"/><path fill="#9C836F" d="M165.643 642.928L165.846 643.071C170.285 655.731 174.907 666.12 181.084 678.102C184.79 685.292 189.822 693.707 193.069 700.894L193.486 700.931C210.475 730.375 229.8 753.958 254.507 777.341C258.995 781.588 265.942 788.379 270.856 792.003C260.794 792.516 250.568 793.597 240.524 794.527C206.996 797.631 173.577 798.093 139.947 798.931C132.975 790.889 127.238 781.868 121.095 773.202C106.573 752.715 95.9411 730.834 84.8059 708.403C78.8219 695.946 73.318 681.573 68.4776 668.603C66.4284 663.113 64.9409 656.499 62.892 650.692C76.789 648.529 93.8528 648.389 107.999 647.468C127.328 646.209 146.355 644.644 165.643 642.928Z"/><path fill="#9D490D" d="M165.643 642.928L165.846 643.071C170.285 655.731 174.907 666.12 181.084 678.102C184.79 685.292 189.822 693.707 193.069 700.894C157.671 704.635 120.347 706.857 84.8059 708.403C78.8219 695.946 73.318 681.573 68.4776 668.603C66.4284 663.113 64.9409 656.499 62.892 650.692C76.789 648.529 93.8528 648.389 107.999 647.468C127.328 646.209 146.355 644.644 165.643 642.928Z"/><path fill="#9D490D" d="M672.933 709.967C672.299 706.375 672.353 702.329 672.563 698.7C676.019 638.91 748.51 615.812 788.007 659.3C790.837 662.416 793.068 666.553 795.536 669.246L796.054 669.8C795.541 671.315 800.576 685.259 801.382 687.422L801.971 687.882C801.775 688.171 801.579 688.459 801.383 688.747C810.195 746.058 746.997 781.803 700.345 750.57C690.755 744.15 686.007 737.972 679.556 728.48C676.575 721.895 674.699 716.966 672.933 709.967Z"/><path fill="#63230A" d="M672.933 709.967C674.699 716.966 676.575 721.895 679.556 728.48C659.603 735.786 639.176 741.621 618.743 747.418C541.89 769.221 463.032 783.893 384.429 797.782C354.832 803.012 324.934 805.98 295.219 810.161C286.916 810.801 278.574 812.22 270.249 812.919C237.808 815.643 205.41 818.109 172.862 819.176C169.938 819.272 160.166 819.512 157.986 820.617C154.938 818.046 142.784 802.55 139.947 798.931C173.577 798.093 206.996 797.631 240.524 794.527C250.568 793.597 260.794 792.516 270.856 792.003C306.606 789.459 344.788 783.568 380.305 778.314C439.162 769.608 498.127 756.536 555.891 742.328C594.192 732.907 635.311 721.902 672.933 709.967Z"/><path fill="#5E1F07" d="M796.054 669.8C813.687 662.162 834.17 655.507 852.355 648.27C849.413 653.497 842.034 668.1 840.179 673.408L839.428 673.757L801.971 687.882L801.382 687.422C800.576 685.259 795.541 671.315 796.054 669.8Z"/><path fill="#9C836F" d="M875.565 460.878C877.777 460.166 880.8 458.711 882.963 457.705C901.864 448.89 921.19 440.989 939.928 431.819C950.597 426.598 960.904 421.101 971.748 416.205C975.424 435.571 977.823 455.707 979.789 475.316C980.046 477.879 980.399 480.997 980.452 483.527C982.496 521.529 981.286 556.34 974.681 594.099C935.617 612.05 893.058 632.546 852.952 647.844C855.511 642.638 858.089 634.563 860.096 628.888C871.528 596.553 877.259 564.351 878.031 530.105L878.452 529.737C878.528 504.122 878.655 486.838 875.414 461.304L875.565 460.878Z"/><path fill="#9D490D" d="M875.565 460.878C877.777 460.166 880.8 458.711 882.963 457.705C901.864 448.89 921.19 440.989 939.928 431.819C950.597 426.598 960.904 421.101 971.748 416.205C975.424 435.571 977.823 455.707 979.789 475.316C980.046 477.879 980.399 480.997 980.452 483.527C970.752 487.283 960.51 492.788 950.952 497.122C926.828 508.061 903.038 519.816 878.452 529.737C878.528 504.122 878.655 486.838 875.414 461.304L875.565 460.878Z"/><path fill="#9C836F" d="M930.548 299.023C932.473 301.875 937.8 312.818 938.818 316.134C948.156 335.673 957.072 361.349 963.282 382.275C966.559 393.316 968.745 405.249 971.748 416.205C960.904 421.101 950.597 426.598 939.928 431.819C921.19 440.989 901.864 448.89 882.963 457.705C880.8 458.711 877.777 460.166 875.565 460.878C872.657 428.047 862.299 389.495 848.807 359.463L848.993 359.161C847.705 357.883 842.586 344.537 841.239 341.578C869.057 329.489 896.203 315.673 923.617 302.687C925.985 301.566 928.327 300.418 930.548 299.023Z"/><path fill="#5E1F07" d="M930.548 299.023C932.473 301.875 937.8 312.818 938.818 316.134C917.847 326.222 897.119 336.679 876.164 346.7C869.295 349.985 855.833 356.655 848.993 359.161C847.705 357.883 842.586 344.537 841.239 341.578C869.057 329.489 896.203 315.673 923.617 302.687C925.985 301.566 928.327 300.418 930.548 299.023Z"/><path d="M859.472 161.026C959.182 259.775 1012.19 396.267 1005.28 536.429L1004.49 536.011C1005.04 529.392 1004.62 521.099 1004.68 514.236C1004.73 508.862 1004.78 501.813 1004.45 496.493C1004.14 491.672 1002.57 485.739 1002.26 480.676C1002.01 476.444 1002.4 471.98 1002.08 467.942C1001.86 465.05 1001.09 461.322 1000.76 458.166C991.372 368.692 954.84 283.922 901.59 211.903C888.797 194.601 873.737 179.469 859.98 163.012C859.599 162.557 859.534 161.582 859.472 161.026Z"/></svg>