<?xml version="1.0" encoding="utf-8" ?><svg xmlns="http://www.w3.org/2000/svg" xmlns:xlink="http://www.w3.org/1999/xlink" width="1024" height="1024" viewBox="0 0 1024 1024"><path fill="#090A25" d="M495.632 8.90119C773.367 -0.00237181 1005.8 217.799 1014.94 495.526C1024.08 773.253 806.481 1005.87 528.762 1015.25C250.705 1024.65 17.7422 806.721 8.58809 528.656C-0.566026 250.59 217.559 17.8156 495.632 8.90119Z"/><path d="M448.877 36.2304C543.228 22.9195 652.011 41.3516 735.105 88.3009C775.06 110.358 806.263 132.944 839.858 164.109C852.137 174.15 870.685 195.89 880.938 208.16C940.961 279.994 979.467 370.43 988.391 463.699C1000.8 588.426 964.822 715.297 885.378 812.788C823.046 889.281 735.162 945.423 640.477 972.649C619.22 978.761 586.012 985.633 563.694 987.853C500.336 994.156 434.106 988.392 373.05 970.405C363.414 967.545 353.91 964.036 344.386 960.805C296.675 943.121 246.503 913.754 207.286 881.666C212.523 875.894 222.062 858.562 226.692 850.853L245.82 819.581C253.91 806.178 260.917 794.104 269.866 781.136C240.634 750.496 224.761 731.512 202.932 695.401C198.979 697.669 193.933 699.081 189.68 700.867C159.366 713.593 128.741 725.431 97.9292 736.892C95.1122 737.94 92.4865 739.231 89.5771 740.08C-22.2056 531.22 36.0938 271.455 223.788 129.602C290.103 79.4827 366.753 47.9734 448.877 36.2304Z"/><path fill="#EB552A" d="M448.877 36.2304C543.228 22.9195 652.011 41.3516 735.105 88.3009C732.405 90.4426 723.69 94.4325 720.085 96.2407L690.099 111.244C687.368 112.593 679.659 116.212 677.593 117.926C656.576 110.6 631.875 105.021 609.926 101.704C601.379 100.413 591.995 99.988 583.673 98.6012C536.938 95.2859 497.77 98.3445 452.805 109.641C285.623 151.644 159.831 300.755 149.888 473.469C145.154 555.694 161.981 624.064 202.932 695.401C198.979 697.669 193.933 699.081 189.68 700.867C159.366 713.593 128.741 725.431 97.9292 736.892C95.1122 737.94 92.4865 739.231 89.5771 740.08C-22.2056 531.22 36.0938 271.455 223.788 129.602C290.103 79.4827 366.753 47.9734 448.877 36.2304Z"/><path fill="#832517" d="M839.858 164.109C852.137 174.15 870.685 195.89 880.938 208.16C940.961 279.994 979.467 370.43 988.391 463.699C1000.8 588.426 964.822 715.297 885.378 812.788C823.046 889.281 735.162 945.423 640.477 972.649C619.22 978.761 586.012 985.633 563.694 987.853C500.336 994.156 434.106 988.392 373.05 970.405C363.414 967.545 353.91 964.036 344.386 960.805C345.934 957.998 347.579 955.224 349.329 952.538C367.203 925.118 382.992 895.246 401.794 868.461C498.654 909.522 619.14 904.176 713.501 859.556C724.6 854.452 736.286 849.197 746.804 842.967C829.45 794.009 893.157 718.478 922.453 626.543C925.922 615.656 930.151 604.148 932.464 592.864C938.535 563.243 942.521 532.784 942.436 502.51C942.317 385.737 894.856 283.698 813.091 201.792C817.029 197.332 821.503 189.719 825.041 184.659C829.906 177.7 834.842 170.958 839.858 164.109Z"/><path fill="#C61605" d="M269.866 781.136C304.617 814.725 356.14 851.81 401.794 868.461C382.992 895.246 367.203 925.118 349.329 952.538C347.579 955.224 345.934 957.998 344.386 960.805C296.675 943.121 246.503 913.754 207.286 881.666C212.523 875.894 222.062 858.562 226.692 850.853L245.82 819.581C253.91 806.178 260.917 794.104 269.866 781.136Z"/><path fill="#C61605" d="M735.105 88.3009C775.06 110.358 806.263 132.944 839.858 164.109C834.842 170.958 829.906 177.7 825.041 184.659C821.503 189.719 817.029 197.332 813.091 201.792C808.35 197.032 802.419 192.081 797.301 187.695C769.753 164.081 738.796 144.544 705.62 129.846C695.531 125.376 688.266 121.706 677.593 117.926C679.659 116.212 687.368 112.593 690.099 111.244L720.085 96.2407C723.69 94.4325 732.405 90.4426 735.105 88.3009Z"/><path fill="#C61605" d="M207.006 693.307C202.123 685.84 195.602 672.415 191.582 664.342C156.587 593.446 146.407 512.596 158.78 434.823C188.593 247.425 356.396 102.978 546.311 101.898C559.853 101.82 575.657 101.823 589.031 103.834C669.165 109.564 752.91 149.909 810.355 205.465C830.469 225.376 840.534 236.729 857.821 259.547C868.389 273.495 878.742 290.595 887.19 305.853C929.655 382.55 946.207 470.131 934.389 557.044C929.067 596.189 921.09 621.863 905.793 658.002C879.936 720.166 837.521 772.07 784.027 812.778C715.314 865.067 631.012 892.138 544.798 891.643C495.937 891.362 450.215 883.964 404.745 865.272C355.066 842.763 310.78 816.457 272.466 776.792C246.533 751.113 225.545 724.874 207.006 693.307Z"/><path fill="#F6843B" d="M207.006 693.307C202.123 685.84 195.602 672.415 191.582 664.342C156.587 593.446 146.407 512.596 158.78 434.823C188.593 247.425 356.396 102.978 546.311 101.898C559.853 101.82 575.657 101.823 589.031 103.834C669.165 109.564 752.91 149.909 810.355 205.465C830.469 225.376 840.534 236.729 857.821 259.547C841.721 272.005 827.48 284.578 811.846 297.486L747.469 350.251C735.246 360.433 723.414 370.881 710.64 380.464C706.52 383.555 699.166 389.855 695.014 392.332L693.38 394.067C688.39 396.031 667.733 412.543 662.424 416.697C650.86 425.746 639.11 435.076 627.228 443.917C557.92 495.486 486.223 543.938 411.601 587.507C403.875 592.018 381.093 606.825 373.901 609.439L371.246 611.493C364.973 614.171 357.67 618.759 351.537 622.076C307.917 645.666 264.275 668.708 218.612 688.164C214.812 689.783 210.726 691.51 207.006 693.307Z"/><path fill="#EB552A" d="M589.031 103.834C669.165 109.564 752.91 149.909 810.355 205.465C830.469 225.376 840.534 236.729 857.821 259.547C841.721 272.005 827.48 284.578 811.846 297.486L747.469 350.251C735.246 360.433 723.414 370.881 710.64 380.464C706.52 383.555 699.166 389.855 695.014 392.332L693.38 394.067C688.39 396.031 667.733 412.543 662.424 416.697C650.86 425.746 639.11 435.076 627.228 443.917C557.92 495.486 486.223 543.938 411.601 587.507C403.875 592.018 381.093 606.825 373.901 609.439C376.058 602.977 385.039 590.243 388.719 583.828C400.682 562.975 414.267 542.893 426.595 522.285L574.587 277.643L614.252 212.948C623.569 197.942 633.192 183.354 641.814 167.884C629.476 148.343 616.116 130.583 599.617 114.479C596.435 111.374 592.512 107.685 589.583 104.452L589.031 103.834Z"/><path fill="#D93418" d="M810.355 205.465C830.469 225.376 840.534 236.729 857.821 259.547C841.721 272.005 827.48 284.578 811.846 297.486L747.469 350.251C735.246 360.433 723.414 370.881 710.64 380.464C706.52 383.555 699.166 389.855 695.014 392.332C699.089 382.374 712.249 364.223 718.342 354.153L783.048 248.975C790.896 236.291 803.796 217.975 810.355 205.465Z"/><path d="M451.817 135.382C478.057 132.26 501.87 150.973 505.04 177.206C508.211 203.44 489.541 227.287 463.314 230.506C437.017 233.733 413.094 215.005 409.916 188.702C406.737 162.4 425.51 138.512 451.817 135.382Z"/><path fill="#EB552A" d="M452.43 140.319C476.051 137.588 497.384 154.598 499.983 178.235C502.582 201.871 485.454 223.109 461.803 225.576C438.338 228.024 417.302 211.059 414.724 187.608C412.146 164.157 428.993 143.027 452.43 140.319Z"/><path d="M241.66 356.929C257.669 354.384 272.703 365.318 275.215 381.331C277.727 397.345 266.763 412.357 250.744 414.836C234.771 417.307 219.813 406.382 217.308 390.415C214.804 374.448 225.698 359.467 241.66 356.929Z"/><path fill="#EB552A" d="M245.08 361.815C258.484 361.124 269.921 371.406 270.655 384.808C271.39 398.209 261.146 409.68 247.747 410.459C234.286 411.242 222.749 400.939 222.011 387.475C221.273 374.011 231.613 362.509 245.08 361.815Z"/><path fill="#D93418" d="M693.38 394.067C688.004 403.618 680.26 414.934 674.32 424.478L636.239 486.973L475.499 750.173L428.474 825.707L413.212 850.41C410.703 854.539 406.612 860.989 404.745 865.272C355.066 842.763 310.78 816.457 272.466 776.792C246.533 751.113 225.545 724.874 207.006 693.307C210.726 691.51 214.812 689.783 218.612 688.164C264.275 668.708 307.917 645.666 351.537 622.076C357.67 618.759 364.973 614.171 371.246 611.493L373.901 609.439C381.093 606.825 403.875 592.018 411.601 587.507C486.223 543.938 557.92 495.486 627.228 443.917C639.11 435.076 650.86 425.746 662.424 416.697C667.733 412.543 688.39 396.031 693.38 394.067Z"/><path fill="#EB552A" d="M207.006 693.307C210.726 691.51 214.812 689.783 218.612 688.164C264.275 668.708 307.917 645.666 351.537 622.076C357.67 618.759 364.973 614.171 371.246 611.493C355.117 640.229 335.367 669.95 318.548 698.768L287.491 750.782C284.392 756.073 275.491 772.839 272.466 776.792C246.533 751.113 225.545 724.874 207.006 693.307Z"/><path d="M872.931 507.068C890.253 503.537 907.143 514.766 910.59 532.105C914.037 549.443 902.727 566.278 885.372 569.642C868.135 572.982 851.439 561.766 848.016 544.545C844.592 527.325 855.728 510.575 872.931 507.068Z"/><path fill="#F6843B" d="M874.444 512.025C889.009 508.952 903.284 518.347 906.224 532.939C909.164 547.532 899.64 561.721 885.021 564.528C870.59 567.298 856.622 557.922 853.719 543.517C850.817 529.112 860.065 515.059 874.444 512.025Z"/><path d="M624.206 773.8C636.532 772.867 647.323 782.001 648.441 794.311C649.558 806.621 640.587 817.548 628.296 818.85C620.179 819.71 612.228 816.13 607.491 809.483C602.754 802.835 601.966 794.152 605.429 786.76C608.891 779.369 616.067 774.416 624.206 773.8Z"/><path fill="#F6843B" d="M622.565 779.372C628.681 778.16 634.976 780.334 639.039 785.064C643.101 789.793 644.302 796.344 642.182 802.207C640.061 808.07 634.948 812.336 628.8 813.373C619.481 814.943 610.629 808.74 608.925 799.445C607.221 790.15 613.296 781.21 622.565 779.372Z"/><path fill="#D93418" d="M202.932 695.401C224.761 731.512 240.634 750.496 269.866 781.136C260.917 794.104 253.91 806.178 245.82 819.581L226.692 850.853C222.062 858.562 212.523 875.894 207.286 881.666C157.919 843.889 120.112 793.66 89.5771 740.08C92.4865 739.231 95.1122 737.94 97.9292 736.892C128.741 725.431 159.366 713.593 189.68 700.867C193.933 699.081 198.979 697.669 202.932 695.401Z"/></svg>