<?xml version="1.0" encoding="utf-8" ?><svg xmlns="http://www.w3.org/2000/svg" xmlns:xlink="http://www.w3.org/1999/xlink" width="1024" height="1024" viewBox="0 0 1024 1024"><path fill="#BE9F82" d="M474.967 0L511.984 0L551.851 0C553.274 1.37354 554 1.58876 556.021 1.79124C601.205 6.31726 643.471 14.8363 686.491 29.9679C745.567 50.7471 801.205 82.496 847.948 124.358C863.654 138.385 878.659 152.51 892.781 168.232C952.605 234.916 994.681 317.99 1013.01 405.674C1016.24 421.111 1018.21 436.81 1020.81 452.356C1021.35 455.607 1021.74 465.331 1023.25 467.441L1024 466.121L1024 547.307C1023.88 547.512 1023.77 547.717 1023.65 547.923C1019.12 586.36 1013 623.144 1001.95 660.341C946.674 846.53 781.35 990.153 588.96 1017.87C583.623 1018.64 556.496 1021.44 553.313 1022.93L553.083 1024L511.576 1024L469.833 1024L469.513 1022.8C465.23 1021.68 453.638 1020.85 448.509 1020.11C435.94 1018.31 424.079 1016.18 411.641 1013.79C359.509 1003.8 310.794 985.33 264.233 960.006C252.491 953.636 241.301 946.02 230.133 938.717C118.444 865.683 38.0183 748.423 11.8617 617.39C7.24014 594.239 3.22284 570.88 1.99645 547.247C1.75234 542.543 1.42236 534.145 0 529.865L0 489.218C1.95847 483.319 2.80367 461.788 3.74695 454.026C14.1557 368.37 44.1241 285.886 94.47 215.498C149.495 138.569 225.045 77.7344 312.056 40.3993C353.869 22.4583 400.389 10.1919 445.547 4.50243C455.183 3.28813 464.928 2.46424 474.515 0.830809L474.967 0ZM666.2 250.311C696.898 267.13 706.739 273.479 719.181 307.544C721.955 300.353 724.021 293.428 727.578 286.531C735.274 271.609 746.373 263.522 760.833 255.727C764.574 253.794 768.145 252.074 771.959 250.286C764.323 247.595 757.281 245.328 750.501 240.842C735.516 232.909 724.606 216.65 718.54 201.188L717.156 198.958C711.677 220.652 705.748 228.871 685.919 241.326C678.411 246.042 673.389 246.97 666.2 250.311ZM781.138 500.839C797.935 510.482 809.876 517.351 818.773 535.554C821.16 540.437 822.879 545.326 825.057 550.147C826.817 547 828.648 543.805 830.335 540.626C841.658 520.851 853.966 512.653 873.795 502.397C849.797 487.657 846.034 490.489 830.882 463.897C829.251 460.958 827.345 457.307 825.556 454.541C818.111 479.422 804.693 490.93 781.138 500.839ZM182.627 452.816C169.686 484.857 162.121 488.913 131.606 502.711C153.344 507.625 171.918 524.089 179.534 544.73C180.453 547.223 181.612 550.42 182.689 552.785C192.012 528.51 199.966 517.64 224.815 505.816C227.615 504.484 230.65 503.308 233.674 502.518C214.955 494.156 200.144 488.706 190.056 469.121C188.517 466.133 183.727 454.291 182.627 452.816ZM284.221 226.381C289.896 228.548 295.817 230.497 301.27 233.158C315.88 240.286 327.201 252.309 333.78 267.131C334.779 269.382 337.844 279.782 339.031 280.573C342.268 271.327 345.277 262.075 351.127 254.057C361.06 240.441 377.732 230.465 394.066 226.594C389.386 224.641 384.923 223.135 380.241 221.055C363.675 213.698 352.023 202.735 345.007 185.854C343.833 183.03 340.644 173.832 338.999 171.754C330.788 194.645 321.633 209.21 298.673 220.536C293.947 222.867 288.977 224.359 284.221 226.381ZM652.651 771.314C642.739 794.719 633.08 807.321 608.688 817.186L600.888 820.271C622.557 827.644 635.151 835.427 646.64 856.652C649.257 861.487 650.199 867.419 652.768 872.292C654.834 866.784 656.935 860.502 659.351 855.277C665.884 841.148 678.22 830.769 692.25 824.49C696.088 822.773 700.2 821.186 704.004 819.441C682.938 813.6 670.813 804.294 659.268 785.235C656.465 780.608 654.765 775.097 652.651 771.314Z"/><path fill="#7C5F44" d="M511.984 0L551.851 0C553.274 1.37354 554 1.58876 556.021 1.79124C601.205 6.31726 643.471 14.8363 686.491 29.9679C745.567 50.7471 801.205 82.496 847.948 124.358C863.654 138.385 878.659 152.51 892.781 168.232C952.605 234.916 994.681 317.99 1013.01 405.674C1016.24 421.111 1018.21 436.81 1020.81 452.356C1021.35 455.607 1021.74 465.331 1023.25 467.441L1024 466.121L1024 547.307C1023.88 547.512 1023.77 547.717 1023.65 547.923C1019.12 586.36 1013 623.144 1001.95 660.341C946.674 846.53 781.35 990.153 588.96 1017.87C583.623 1018.64 556.496 1021.44 553.313 1022.93L553.083 1024L511.576 1024C512.856 1020.56 512.073 968.513 512.073 962.202C503.309 962.74 470.864 960.689 462.822 958.907C489.654 952.821 516.584 948.721 542.5 938.774C554.807 934.05 567.032 928.711 578.934 923.154C716.621 858.86 808.464 714.237 828.906 566.108C829.62 560.938 832.265 544.753 830.335 540.626C841.658 520.851 853.966 512.653 873.795 502.397C849.797 487.657 846.034 490.489 830.882 463.897C831.1 463.472 831.456 462.731 831.42 462.275C826.653 400.757 807.742 340.8 778.879 286.403C773.357 275.995 767.472 265.419 760.833 255.727C764.574 253.794 768.145 252.074 771.959 250.286C764.323 247.595 757.281 245.328 750.501 240.842C735.516 232.909 724.606 216.65 718.54 201.188L717.156 198.958C714.783 194.381 695.909 178.293 690.903 173.751C636.885 124.749 569.581 89.2841 498.473 72.9542C488.752 70.7219 472.701 66.1563 463.453 65.9188L462.521 65.5088C466.318 65.3715 473.77 64.2923 478.072 63.8636C489.888 62.686 500.154 62.1022 512.017 62.0134C512.255 41.54 512.017 20.5066 511.984 0Z"/><path fill="#283035" d="M847.948 124.358C863.654 138.385 878.659 152.51 892.781 168.232C952.605 234.916 994.681 317.99 1013.01 405.674C1016.24 421.111 1018.21 436.81 1020.81 452.356C1021.35 455.607 1021.74 465.331 1023.25 467.441L1024 466.121L1024 547.307C1023.88 547.512 1023.77 547.717 1023.65 547.923C1019.12 586.36 1013 623.144 1001.95 660.341C946.674 846.53 781.35 990.153 588.96 1017.87C583.623 1018.64 556.496 1021.44 553.313 1022.93L553.083 1024L511.576 1024C512.856 1020.56 512.073 968.513 512.073 962.202C904.478 956.624 1105.4 504.908 847.125 208.818C834.627 194.49 820.553 181.528 806.574 168.637C810.278 162.126 842.075 126.996 847.948 124.358Z"/><path fill="#464C52" d="M511.984 0L551.851 0C553.274 1.37354 554 1.58876 556.021 1.79124C601.205 6.31726 643.471 14.8363 686.491 29.9679C745.567 50.7471 801.205 82.496 847.948 124.358C842.075 126.996 810.278 162.126 806.574 168.637C802.884 166.002 799.06 162.471 795.485 159.574C724.579 102.115 637.152 68.3005 546.067 62.4225C534.861 61.6994 523.271 61.9848 512.017 62.0134C512.255 41.54 512.017 20.5066 511.984 0Z"/><path fill="#A28466" d="M718.54 201.188C722.894 203.351 749.686 236.213 750.501 240.842C735.516 232.909 724.606 216.65 718.54 201.188Z"/><path fill="#A28466" d="M463.453 65.9188C472.701 66.1563 488.752 70.7219 498.473 72.9542C569.581 89.2841 636.885 124.749 690.903 173.751C695.909 178.293 714.783 194.381 717.156 198.958C711.677 220.652 705.748 228.871 685.919 241.326C678.411 246.042 673.389 246.97 666.2 250.311C696.898 267.13 706.739 273.479 719.181 307.544C721.955 300.353 724.021 293.428 727.578 286.531C735.274 271.609 746.373 263.522 760.833 255.727C767.472 265.419 773.357 275.995 778.879 286.403C807.742 340.8 826.653 400.757 831.42 462.275C831.456 462.731 831.1 463.472 830.882 463.897C829.251 460.958 827.345 457.307 825.556 454.541C818.111 479.422 804.693 490.93 781.138 500.839C797.935 510.482 809.876 517.351 818.773 535.554C821.16 540.437 822.879 545.326 825.057 550.147C826.817 547 828.648 543.805 830.335 540.626C832.265 544.753 829.62 560.938 828.906 566.108C808.464 714.237 716.621 858.86 578.934 923.154C567.032 928.711 554.807 934.05 542.5 938.774C516.584 948.721 489.654 952.821 462.822 958.907C458.178 959.116 450.427 957.498 445.763 956.893C332.717 942.243 228.895 881.224 158.76 791.783C149.926 780.518 136.475 762.995 129.775 749.988C139.545 753.126 152.853 762.124 162.351 767.07C236.541 805.705 321.199 818.156 403.299 800.147C609.146 754.995 734.489 537.715 686.792 335.439C660.232 222.801 584.879 132.218 484.764 76.5311C478.184 72.8426 469.545 69.9527 463.453 65.9188ZM652.768 872.292C654.834 866.784 656.935 860.502 659.351 855.277C665.884 841.148 678.22 830.769 692.25 824.49C696.088 822.773 700.2 821.186 704.004 819.441C682.938 813.6 670.813 804.294 659.268 785.235C656.465 780.608 654.765 775.097 652.651 771.314C642.739 794.719 633.08 807.321 608.688 817.186L600.888 820.271C622.557 827.644 635.151 835.427 646.64 856.652C649.257 861.487 650.199 867.419 652.768 872.292Z"/><path fill="#464C52" d="M474.967 0L511.984 0C512.017 20.5066 512.255 41.54 512.017 62.0134C500.154 62.1022 489.888 62.686 478.072 63.8636C473.77 64.2923 466.318 65.3715 462.521 65.5088C448.832 65.2435 425.339 70.7085 411.769 73.6506C211.299 117.114 63.6982 299.479 61.4812 504.423C60.6964 576.974 75.0492 645.376 107.67 710.552C112.066 719.429 123.77 742.872 129.775 749.988C136.475 762.995 149.926 780.518 158.76 791.783C228.895 881.224 332.717 942.243 445.763 956.893C450.427 957.498 458.178 959.116 462.822 958.907C470.864 960.689 503.309 962.74 512.073 962.202C512.073 968.513 512.856 1020.56 511.576 1024L469.833 1024L469.513 1022.8C465.23 1021.68 453.638 1020.85 448.509 1020.11C435.94 1018.31 424.079 1016.18 411.641 1013.79C359.509 1003.8 310.794 985.33 264.233 960.006C252.491 953.636 241.301 946.02 230.133 938.717C118.444 865.683 38.0183 748.423 11.8617 617.39C7.24014 594.239 3.22284 570.88 1.99645 547.247C1.75234 542.543 1.42236 534.145 0 529.865L0 489.218C1.95847 483.319 2.80367 461.788 3.74695 454.026C14.1557 368.37 44.1241 285.886 94.47 215.498C149.495 138.569 225.045 77.7344 312.056 40.3993C353.869 22.4583 400.389 10.1919 445.547 4.50243C455.183 3.28813 464.928 2.46424 474.515 0.830809L474.967 0Z"/><path fill="#B27327" d="M565.893 382.214C598.293 379.115 627.074 402.86 630.188 435.259C633.301 467.658 609.569 496.449 577.172 499.577C544.754 502.707 515.941 478.957 512.825 446.538C509.709 414.119 533.472 385.316 565.893 382.214Z"/><path fill="#B27327" d="M392.712 628.649C424.445 625.7 452.52 649.13 455.295 680.879C458.07 712.628 434.486 740.574 402.722 743.174C371.205 745.755 343.522 722.393 340.768 690.89C338.015 659.387 361.224 631.576 392.712 628.649Z"/></svg>