<?xml version="1.0" encoding="utf-8" ?><svg xmlns="http://www.w3.org/2000/svg" xmlns:xlink="http://www.w3.org/1999/xlink" width="1024" height="1024" viewBox="0 0 1024 1024"><path fill="#072041" d="M471.404 0L560.509 0L560.323 1.26268C561.683 2.36059 584.629 4.97274 588.328 5.56078C616.898 10.1023 644.485 16.5923 671.997 25.5619C738.532 47.2537 799.097 82.8795 851.222 129.481C947.388 215.457 1006.47 329.185 1020.23 457.667C1020.73 462.309 1021.03 474.686 1022.81 478.505L1023.28 477.996C1023.82 477.423 1023.57 477.581 1024 477.363L1024 554.265C1023.21 551.95 1022.98 550.706 1022.54 548.286C1014.43 627.921 996.004 694.05 956.99 763.882C879.952 901.776 739.054 997.056 582.686 1018.53C577.368 1019.26 571.952 1019.71 566.657 1020.53C563.085 1021.07 560.057 1020.46 558.846 1024L458.436 1024L457.767 1021.76C446.379 1019.53 433.695 1018.41 421.973 1016.37C197.141 977.134 18.9851 784.324 2.39848 555.92C2.17034 552.779 1.74607 545.202 0.816474 542.491L0 542.169L0 476.877L0.684675 476.713C1.62891 474.541 1.84907 468.134 2.12303 465.39C3.65643 450.032 5.59809 434.859 8.44958 419.666C14.4782 387.545 22.8752 355.208 34.9759 324.757C60.6489 260.151 98.9313 202.16 147.753 152.674C157.338 142.826 167.834 134.128 178.072 124.993C252.084 58.9575 347.147 17.8372 444.981 3.81371C449.492 3.16705 469.528 1.80869 472.053 0.701859L471.404 0Z"/><path fill="#91A0B1" d="M354.548 59.7831C363.042 55.4824 385.18 49.9564 394.944 47.4805C477.287 26.6009 570.615 28.0816 651.794 53.5044C776.074 92.4254 881.908 180.781 939.79 297.692C1012.93 445.477 1004.66 630.094 915.487 769.168C911.953 774.68 906.11 784.605 901.69 789.233C846.055 868.944 763.543 929.948 671.98 962.075C667.69 963.997 662.082 965.701 657.565 967.17C467.208 1029.33 260.385 965.246 136.311 808.719C-10.24 627.039 0.544297 350.068 164.786 183.18C187.623 159.975 216.4 131.587 244.855 115.115C247.321 112.928 256.595 106.956 259.596 105.102C289.798 86.4446 321.126 71.5304 354.548 59.7831Z"/><path fill="#64768B" d="M244.855 115.115C247.321 112.928 256.595 106.956 259.596 105.102C289.798 86.4446 321.126 71.5304 354.548 59.7831C289.458 167.098 277.625 308.265 309.045 428.468C349.641 583.774 462.949 714.802 612.9 773.678C690.653 804.208 790.156 816.935 872.173 796.717L901.69 789.233C846.055 868.944 763.543 929.948 671.98 962.075C667.69 963.997 662.082 965.701 657.565 967.17C467.208 1029.33 260.385 965.246 136.311 808.719C-10.24 627.039 0.544297 350.068 164.786 183.18C187.623 159.975 216.4 131.587 244.855 115.115Z"/><path fill="#4C5F76" d="M244.855 115.115L244.593 115.66C241.621 121.709 237.283 127.783 233.882 133.701C204.574 184.707 190.269 243.581 181.923 301.365C181.515 304.196 180.661 310.938 181.616 313.575C176.128 319.345 170.004 325.588 165.598 332.176C156.176 346.264 149.557 365.438 150.148 382.485C150.97 406.2 159.859 424.291 181.954 434.12C180.866 437.97 192.964 496.532 195.044 505.346C198.998 522.099 204.965 544.82 209.271 561.875C227.965 556.314 247.444 558.02 264.482 567.674C314.828 596.202 330.966 665.204 303.871 715.151C300.059 722.178 294.876 728.833 289.764 734.878C326.233 786.489 359.264 824.278 412.181 860.118C417.127 887.694 429.835 908.506 452.712 925.41C464.053 933.79 483.218 939.767 497.249 937.032C509.668 934.611 516.209 929.409 524.131 919.922C562.152 940.933 617.073 953.194 659.721 960.254C663.374 960.858 668.598 961.044 671.98 962.075C667.69 963.997 662.082 965.701 657.565 967.17C467.208 1029.33 260.385 965.246 136.311 808.719C-10.24 627.039 0.544297 350.068 164.786 183.18C187.623 159.975 216.4 131.587 244.855 115.115Z"/><path fill="#072041" d="M209.271 561.875C227.965 556.314 247.444 558.02 264.482 567.674C314.828 596.202 330.966 665.204 303.871 715.151C300.059 722.178 294.876 728.833 289.764 734.878C265.716 759.521 232.276 768.296 201.08 752.295C148.571 725.36 135.316 654.91 161.635 605.063C172.556 584.38 186.945 569.156 209.271 561.875Z"/><path fill="#264062" d="M212.847 572.719C231.89 568.186 246.539 569.954 263.506 580.067C283.398 591.925 297.953 615.571 303.092 637.724C310.11 667.971 303.571 701.513 283.724 725.487C281.656 728.436 278.751 730.94 275.965 733.156C263.383 743.161 249.675 750.208 233.209 749.513C215.539 748.767 203.868 743.889 190.702 732.4C156.787 702.803 149.981 650.169 170.371 611.037C179.596 593.421 193.399 578.68 212.847 572.719Z"/><path fill="#274162" d="M212.847 572.719C231.89 568.186 246.539 569.954 263.506 580.067C283.398 591.925 297.953 615.571 303.092 637.724C310.11 667.971 303.571 701.513 283.724 725.487C280.192 720.046 277.378 714.102 273.953 708.723C262.673 691.007 254.325 672.68 245.449 653.673C235.014 631.326 224.731 608.66 217.081 585.158C216.081 582.087 212.899 575.647 212.847 572.719Z"/><path fill="#072041" d="M412.181 860.118C402.929 797.935 460.427 769.879 504.741 812.681C531.598 838.623 546.027 886.888 524.131 919.922C516.209 929.409 509.668 934.611 497.249 937.032C483.218 939.767 464.053 933.79 452.712 925.41C429.835 908.506 417.127 887.694 412.181 860.118Z"/><path fill="#264062" d="M431.492 814.855C438.903 806.674 446.245 801.659 457.688 801.345C494.706 800.329 523.029 843.203 524.691 876.631C525.174 878.113 525.025 881.011 525.096 882.644C525.888 900.719 516.18 924.771 495.801 927.264C458.879 931.781 425.692 890.512 421.408 856.836C419.345 840.684 422.077 827.593 431.492 814.855Z"/><path fill="#274162" d="M431.492 814.855C438.903 806.674 446.245 801.659 457.688 801.345C494.706 800.329 523.029 843.203 524.691 876.631C523.62 877.532 522.612 877.859 521.167 877.497C484.687 868.382 454.659 842.677 431.492 814.855Z"/><path fill="#072041" d="M181.616 313.575C195.013 302.198 210.265 295.024 227.881 296.494C258.966 299.088 272.082 330.437 269.128 358.168C266.404 383.736 253.274 403.962 234 420.415C219.874 432.054 200.097 439.618 181.954 434.12C159.859 424.291 150.97 406.2 150.148 382.485C149.557 365.438 156.176 346.264 165.598 332.176C170.004 325.588 176.128 319.345 181.616 313.575Z"/><path fill="#264062" d="M165.12 403.028C163.929 400.679 162.502 395.009 161.983 392.374C157.841 371.856 163.292 352.939 174.827 335.834C188.608 315.398 218.851 296.071 242.543 312.599C267.933 330.299 261.019 373.169 244.94 394.917C225.477 421.242 182.771 444.651 165.12 403.028Z"/><path fill="#274162" d="M242.543 312.599C267.933 330.299 261.019 373.169 244.94 394.917C225.477 421.242 182.771 444.651 165.12 403.028C167.475 402.23 173.513 401.815 176.231 401.386C212.519 395.661 241.374 359.865 242.28 323.641C242.345 321.046 241.877 314.621 242.543 312.599Z"/><path fill="#274162" d="M546.172 417.172C609.661 411.643 665.612 458.625 671.148 522.113C676.683 585.601 629.707 641.557 566.219 647.098C502.723 652.641 446.757 605.656 441.221 542.16C435.685 478.663 482.675 422.702 546.172 417.172Z"/><path fill="#4C5F76" d="M554.16 437.042C606.752 435.495 650.64 476.878 652.183 529.471C653.726 582.064 612.34 625.948 559.747 627.488C507.159 629.027 463.28 587.646 461.737 535.058C460.194 482.471 501.572 438.588 554.16 437.042Z"/><path fill="#274162" d="M862.751 439.208C884.641 437.589 910.111 447.331 926.002 462.309C988.304 521.032 964.755 650.808 871.054 660.484C812.976 662.187 775.776 611.53 771.926 557.57C767.934 501.611 802.726 443.22 862.751 439.208Z"/><path fill="#264062" d="M858.226 453.062C859.696 452.566 864.042 452.569 865.82 452.597C908.018 453.245 936.335 491.331 942.186 529.561C949.445 576.984 924.057 635.306 873.69 643.805L872.848 643.915C854.907 646.233 838.063 641.589 823.999 630.111C782.877 596.302 776.693 525.559 808.511 483.562C810.422 481.04 813.36 478.64 815.46 476.186C826.108 463.742 841.676 454.697 858.226 453.062Z"/><path fill="#264062" d="M447.468 86.703C486.682 82.7637 539.788 100.752 544.896 146.223C549.418 186.471 507.773 210.541 472.379 214.114C431.959 218.697 370.436 196.187 374.153 145.848C376.773 110.368 414.953 90.0354 447.468 86.703Z"/><path fill="#4C5F76" d="M453.909 99.7098C482.684 96.3283 528.029 113.486 530.782 147.105C533.537 180.758 495.394 198.236 466.884 200.538C444.51 201.032 425.04 197.237 407.04 183.415C379.768 162.473 384.071 130.554 411.907 112.645C425.704 103.769 437.869 101.42 453.909 99.7098Z"/><path fill="#274162" d="M715.885 175.7C731.673 174.151 751.159 182.53 763.026 192.566C780.659 207.57 794.009 228.923 795.853 252.392C797.937 278.911 785.608 300.181 757.629 302.176C739.714 302.331 727.307 296.674 712.697 285.617C685.714 265.194 664.382 220.27 686.956 189.477C693.219 180.934 705.39 176.718 715.885 175.7Z"/><path fill="#4C5F76" d="M784.404 247.733C787.085 261.05 781.977 281.043 769.1 287.527C759.591 292.315 747.837 290.811 737.999 287.7C719.76 281.505 706.225 268.758 696.86 251.896C685.03 230.597 681.42 201.835 706.144 188.141C716.106 182.623 728.236 185.064 738.667 188.657C758.626 197.336 771.348 210.25 779.864 230.646C781.256 233.98 784.496 244.172 784.404 247.733Z"/><path fill="#264062" d="M738.667 188.657C758.626 197.336 771.348 210.25 779.864 230.646C781.256 233.98 784.496 244.172 784.404 247.733C780.317 252.725 779.654 260.208 771.327 261.875C760.691 264.003 749.724 259.568 740.545 254.64C722.865 245.148 702.169 221.055 712.153 199.909C717.064 189.714 729.712 191.286 738.667 188.657Z"/></svg>