<?xml version="1.0" encoding="utf-8" ?><svg xmlns="http://www.w3.org/2000/svg" xmlns:xlink="http://www.w3.org/1999/xlink" width="1024" height="1024" viewBox="0 0 1024 1024"><path fill="#153274" d="M514.312 29.7887C780.184 31.0754 994.719 247.562 993.598 513.434C992.478 779.307 776.125 993.977 510.252 993.022C244.144 992.067 29.243 775.481 30.3647 509.374C31.4864 243.267 248.206 28.5009 514.312 29.7887Z"/><path fill="#051F4E" d="M94.0715 325.813C99.0331 316.794 103.14 306.741 107.936 297.52C199.728 121.219 403.153 21.197 598.612 62.1581C632.739 69.3099 656.472 76.7885 689.094 89.8752C705.29 97.3309 718.424 103.325 734.088 112.067C758.668 125.456 776.877 138.788 798.967 155.806C790.611 171.589 783.576 187.381 774.38 203.032C765.567 218.029 755.016 231.16 745.886 245.479C754.704 251.283 764.051 258.507 772.573 264.869C780.01 270.422 789.789 277.444 796.529 283.676L796.482 283.91C809.288 295.561 826.8 310.491 838.416 323.119C850.515 307.73 863.344 293.012 874.564 276.906C879.714 269.513 885.312 262.501 889.77 254.623C894.851 262.107 899.199 268.76 903.722 276.616C924.273 307.336 947.303 361.506 955.818 397.365C947.446 405.763 939.22 414.372 930.725 422.627C928.419 424.868 922.669 430.816 920.376 432.468L919.934 433.068C936.707 462.995 950.06 498.897 959.185 531.872C960.781 537.639 964.682 551.148 965.83 557.085C968.05 561.825 965.748 587.226 963.456 591.885C963.918 597.364 960.269 608.877 958.952 614.603C946.553 668.487 922.801 718.702 892.44 764.708C891.999 765.376 890.622 766.302 889.916 766.751C891.164 773.599 840.68 830.064 831.443 838.763C765.885 900.514 680.019 946.413 591.046 962.243C496.525 979.059 394.072 964.393 308.54 920.899C308.18 920.716 307.647 920.223 307.314 919.93C307.288 919.913 307.261 919.896 307.234 919.879C261.477 898.512 219.611 866.725 184.319 830.714C180.179 826.49 151.834 798.072 152.42 793.719C146.781 791.984 133.188 770.377 129.643 764.187C123.971 759.366 104.132 719.023 100.055 710.266C164.595 720.203 224.188 724.582 289.462 717.873C289.24 717.104 269.883 693.934 267.077 690.29C252.924 671.911 242.256 653.815 232.211 632.846L228.22 632.856C229.704 632.635 230.513 632.683 231.788 632.008C227.393 623.446 224.322 617.328 220.633 608.464C226.821 608.522 239.136 608.86 245.024 608.057C239.594 607.565 226.487 607.976 220.611 607.985C212.969 588.668 208.516 576.797 202.963 556.875L202.708 556.593C201.402 550.054 199.592 543.238 198.187 536.593C194.933 521.206 193.154 507.301 192.499 491.657C192.101 467.665 192.965 440.174 197.483 416.517C200.586 400.532 205.271 385.419 210.015 369.868L209.982 369.559C201.889 367.639 193.382 366.53 184.909 364.387C158.808 357.787 115.598 342.149 94.0715 325.813Z"/><path fill="#4C82C8" d="M94.0715 325.813C99.0331 316.794 103.14 306.741 107.936 297.52C199.728 121.219 403.153 21.197 598.612 62.1581C632.739 69.3099 656.472 76.7885 689.094 89.8752C705.29 97.3309 718.424 103.325 734.088 112.067C758.668 125.456 776.877 138.788 798.967 155.806C790.611 171.589 783.576 187.381 774.38 203.032C765.567 218.029 755.016 231.16 745.886 245.479C754.704 251.283 764.051 258.507 772.573 264.869C780.01 270.422 789.789 277.444 796.529 283.676L796.482 283.91C809.288 295.561 826.8 310.491 838.416 323.119C813.086 350.346 791.997 373.784 763.731 398.585C622.176 522.785 439.603 600.395 250.802 607.891C248.874 607.968 246.95 608.032 245.024 608.057C239.594 607.565 226.487 607.976 220.611 607.985C212.969 588.668 208.516 576.797 202.963 556.875L202.708 556.593C201.402 550.054 199.592 543.238 198.187 536.593C194.933 521.206 193.154 507.301 192.499 491.657C192.101 467.665 192.965 440.174 197.483 416.517C200.586 400.532 205.271 385.419 210.015 369.868L209.982 369.559C201.889 367.639 193.382 366.53 184.909 364.387C158.808 357.787 115.598 342.149 94.0715 325.813Z"/><path fill="#4C82C8" d="M94.0715 325.813C99.0331 316.794 103.14 306.741 107.936 297.52C199.728 121.219 403.153 21.197 598.612 62.1581C632.739 69.3099 656.472 76.7885 689.094 89.8752C705.29 97.3309 718.424 103.325 734.088 112.067C758.668 125.456 776.877 138.788 798.967 155.806C790.611 171.589 783.576 187.381 774.38 203.032C765.567 218.029 755.016 231.16 745.886 245.479L745.579 245.541C731.37 234.759 696.279 216.768 679.508 208.828L679.466 208.572C663.208 201.694 650.278 196.784 633.56 190.964C545.834 306.953 396.227 378.948 250.045 373.805C236.616 373.332 223.339 371.541 210.015 369.868L209.982 369.559C201.889 367.639 193.382 366.53 184.909 364.387C158.808 357.787 115.598 342.149 94.0715 325.813Z"/><path fill="#1457AC" d="M209.982 369.559C230.806 297.046 296.092 228.244 363.848 197.419C433.014 165.952 512.435 159.781 586.12 177.644C602.426 181.597 617.667 184.751 633.531 190.695L633.56 190.964C545.834 306.953 396.227 378.948 250.045 373.805C236.616 373.332 223.339 371.541 210.015 369.868L209.982 369.559Z"/><path fill="#4C82C8" d="M391.376 209.956C411.444 207.015 430.082 220.939 432.953 241.016C435.824 261.094 421.835 279.683 401.748 282.485C381.759 285.273 363.28 271.367 360.423 251.388C357.566 231.409 371.407 212.882 391.376 209.956Z"/><path fill="#4C82C8" d="M734.088 112.067C758.668 125.456 776.877 138.788 798.967 155.806C790.611 171.589 783.576 187.381 774.38 203.032C765.567 218.029 755.016 231.16 745.886 245.479L745.579 245.541C731.37 234.759 696.279 216.768 679.508 208.828L679.466 208.572C686.79 198.515 694.224 188.632 700.826 178.083C714.138 156.813 724.146 134.949 734.088 112.067Z"/><path fill="#7DB3E2" d="M689.094 89.8752C705.29 97.3309 718.424 103.325 734.088 112.067C724.146 134.949 714.138 156.813 700.826 178.083C694.224 188.632 686.79 198.515 679.466 208.572C663.208 201.694 650.278 196.784 633.56 190.964L633.531 190.695C635.108 189.169 641.401 180.325 642.824 178.25C660.004 153.211 679.239 118.563 689.094 89.8752Z"/><path fill="#1457AC" d="M633.56 190.964C650.278 196.784 663.208 201.694 679.466 208.572L679.508 208.828C696.279 216.768 731.37 234.759 745.579 245.541C732.498 264.851 709.656 289.366 693.571 306.105C681.64 318.522 665.331 334.242 652.049 345.257C568.885 414.228 466.538 466.151 360.1 486.233C313.707 494.987 263.583 499.097 216.745 494.27C211.221 493.701 197.046 492.824 192.499 491.657C192.101 467.665 192.965 440.174 197.483 416.517C200.586 400.532 205.271 385.419 210.015 369.868C223.339 371.541 236.616 373.332 250.045 373.805C396.227 378.948 545.834 306.953 633.56 190.964Z"/><path fill="#33A5E9" d="M633.56 190.964C650.278 196.784 663.208 201.694 679.466 208.572L679.508 208.828C576.683 347.63 397.635 434.988 224.373 419.884C215.839 419.14 205.87 418.254 197.483 416.517C200.586 400.532 205.271 385.419 210.015 369.868C223.339 371.541 236.616 373.332 250.045 373.805C396.227 378.948 545.834 306.953 633.56 190.964Z"/><path fill="#1457AC" d="M796.482 283.91C809.288 295.561 826.8 310.491 838.416 323.119C813.086 350.346 791.997 373.784 763.731 398.585C622.176 522.785 439.603 600.395 250.802 607.891C248.874 607.968 246.95 608.032 245.024 608.057C239.594 607.565 226.487 607.976 220.611 607.985C212.969 588.668 208.516 576.797 202.963 556.875C241.38 559.495 282.614 559.47 321.024 554.849C439.551 540.451 554.186 493.171 651.126 423.85C693.657 391.693 734.976 357.576 769.368 316.584C772.88 312.398 777.383 306.537 781.013 302.763C785.404 298.197 792.027 287.303 796.482 283.91Z"/><path fill="#1457AC" d="M889.77 254.623C894.851 262.107 899.199 268.76 903.722 276.616C924.273 307.336 947.303 361.506 955.818 397.365C947.446 405.763 939.22 414.372 930.725 422.627C928.419 424.868 922.669 430.816 920.376 432.468L919.934 433.068C901.722 449.506 882.996 467.817 863.972 483.027C719.25 598.741 548.016 682.619 363.531 708.846C340.083 712.18 315.702 715.934 292.019 717.626L289.462 717.873C289.24 717.104 269.883 693.934 267.077 690.29C252.924 671.911 242.256 653.815 232.211 632.846L228.22 632.856C229.704 632.635 230.513 632.683 231.788 632.008C227.393 623.446 224.322 617.328 220.633 608.464C226.821 608.522 239.136 608.86 245.024 608.057C246.95 608.032 248.874 607.968 250.802 607.891C439.603 600.395 622.176 522.785 763.731 398.585C791.997 373.784 813.086 350.346 838.416 323.119C850.515 307.73 863.344 293.012 874.564 276.906C879.714 269.513 885.312 262.501 889.77 254.623Z"/><path fill="#7DB3E2" d="M889.77 254.623C894.851 262.107 899.199 268.76 903.722 276.616C899.934 283 894.514 290.117 890.164 296.25C879.135 311.803 867.425 326.21 855.191 340.829C704.636 513.254 474.653 625.218 245.816 632.424C241.494 632.56 236.436 632.433 232.211 632.846L228.22 632.856C229.704 632.635 230.513 632.683 231.788 632.008C227.393 623.446 224.322 617.328 220.633 608.464C226.821 608.522 239.136 608.86 245.024 608.057C246.95 608.032 248.874 607.968 250.802 607.891C439.603 600.395 622.176 522.785 763.731 398.585C791.997 373.784 813.086 350.346 838.416 323.119C850.515 307.73 863.344 293.012 874.564 276.906C879.714 269.513 885.312 262.501 889.77 254.623Z"/><path fill="#4C82C8" d="M903.722 276.616C924.273 307.336 947.303 361.506 955.818 397.365C947.446 405.763 939.22 414.372 930.725 422.627C928.419 424.868 922.669 430.816 920.376 432.468C918.631 429.91 917.136 426.859 915.522 424.17C905.311 407.155 894.472 389.667 882.689 373.688C874.421 362.474 864.351 351.38 855.191 340.829C867.425 326.21 879.135 311.803 890.164 296.25C894.514 290.117 899.934 283 903.722 276.616Z"/><path fill="#051F4E" d="M919.934 433.068C936.707 462.995 950.06 498.897 959.185 531.872C960.781 537.639 964.682 551.148 965.83 557.085C943.32 576.965 921.419 595.712 897.254 613.589C833.586 660.693 764.179 697.857 691.697 729.22C602.3 767.901 507.513 791.169 410.126 795.627C405.199 795.853 399.089 796.235 394.197 796.058C392.962 795.925 388.869 795.849 387.962 795.577C383.246 794.15 379.195 790.273 375.021 787.827C355.809 776.57 338.292 763.764 321.983 748.564C315.044 742.098 307.263 736.021 300.865 728.89C298.026 725.727 294.574 722.777 292.049 719.353C291.483 718.589 291.709 718.65 292.019 717.626C315.702 715.934 340.083 712.18 363.531 708.846C548.016 682.619 719.25 598.741 863.972 483.027C882.996 467.817 901.722 449.506 919.934 433.068Z"/><path fill="#33A5E9" d="M965.83 557.085C968.05 561.825 965.748 587.226 963.456 591.885C892.167 651.155 825.987 692.319 742.202 731.609C634.125 782.291 534.122 814.316 413.915 819.564C321.191 823.612 242.435 818.17 152.42 793.719C146.781 791.984 133.188 770.377 129.643 764.187C123.971 759.366 104.132 719.023 100.055 710.266C164.595 720.203 224.188 724.582 289.462 717.873L292.019 717.626C291.709 718.65 291.483 718.589 292.049 719.353C294.574 722.777 298.026 725.727 300.865 728.89C307.263 736.021 315.044 742.098 321.983 748.564C338.292 763.764 355.809 776.57 375.021 787.827C379.195 790.273 383.246 794.15 387.962 795.577C388.869 795.849 392.962 795.925 394.197 796.058C399.089 796.235 405.199 795.853 410.126 795.627C507.513 791.169 602.3 767.901 691.697 729.22C764.179 697.857 833.586 660.693 897.254 613.589C921.419 595.712 943.32 576.965 965.83 557.085Z"/><path fill="#153274" d="M100.055 710.266C164.595 720.203 224.188 724.582 289.462 717.873L292.019 717.626C291.709 718.65 291.483 718.589 292.049 719.353C294.574 722.777 298.026 725.727 300.865 728.89C307.263 736.021 315.044 742.098 321.983 748.564C338.292 763.764 355.809 776.57 375.021 787.827C379.195 790.273 383.246 794.15 387.962 795.577C388.869 795.849 392.962 795.925 394.197 796.058C389.223 796.766 382.516 796.515 377.41 796.607C305.453 797.91 232.327 791.023 162.501 773.261C151.41 770.439 140.606 767.363 129.643 764.187C123.971 759.366 104.132 719.023 100.055 710.266Z"/><path fill="#1457AC" d="M889.916 766.751C891.164 773.599 840.68 830.064 831.443 838.763C765.885 900.514 680.019 946.413 591.046 962.243C496.525 979.059 394.072 964.393 308.54 920.899C308.18 920.716 307.647 920.223 307.314 919.93C433.526 927.538 562.304 909.021 681.463 866.953C699.362 860.634 715.832 853.1 733.25 845.904C761.092 834.402 788.559 822.718 815.368 808.906C840.963 796.006 865.07 780.975 889.916 766.751Z"/><path fill="#4C82C8" d="M94.0715 325.813C115.598 342.149 158.808 357.787 184.909 364.387C193.382 366.53 201.889 367.639 209.982 369.559L210.015 369.868C205.271 385.419 200.586 400.532 197.483 416.517C192.965 440.174 192.101 467.665 192.499 491.657C193.154 507.301 194.933 521.206 198.187 536.593C199.592 543.238 201.402 550.054 202.708 556.593L202.963 556.875C208.516 576.797 212.969 588.668 220.611 607.985C226.487 607.976 239.594 607.565 245.024 608.057C239.136 608.86 226.821 608.522 220.633 608.464C224.322 617.328 227.393 623.446 231.788 632.008C230.513 632.683 229.704 632.635 228.22 632.856L232.211 632.846C242.256 653.815 252.924 671.911 267.077 690.29C269.883 693.934 289.24 717.104 289.462 717.873C224.188 724.582 164.595 720.203 100.055 710.266C99.2622 708.233 98.3001 706.307 97.3834 704.328C90.0146 688.535 83.5269 672.335 78.2445 655.726C73.7823 641.695 70.9868 627.1 66.71 613.066C64.6771 605.859 62.6511 593.58 61.2521 586.086C58.1769 563.812 56.3457 545.697 55.1032 523.22C54.465 499.839 55.5668 476.131 58.6617 452.939C61.0964 426.5 68.9098 397.11 76.3762 371.71C77.1854 369.712 77.9113 367.107 78.6007 364.995C82.9956 351.528 87.8368 338.553 94.0715 325.813Z"/><path fill="#4C82C8" d="M94.0715 325.813C115.598 342.149 158.808 357.787 184.909 364.387C193.382 366.53 201.889 367.639 209.982 369.559L210.015 369.868C205.271 385.419 200.586 400.532 197.483 416.517C192.965 440.174 192.101 467.665 192.499 491.657C190.854 491.05 187.921 490.678 186.113 490.422C143.477 484.383 97.448 472.005 58.6617 452.939C61.0964 426.5 68.9098 397.11 76.3762 371.71C77.1854 369.712 77.9113 367.107 78.6007 364.995C82.9956 351.528 87.8368 338.553 94.0715 325.813Z"/><path fill="#7DB3E2" d="M94.0715 325.813C115.598 342.149 158.808 357.787 184.909 364.387C193.382 366.53 201.889 367.639 209.982 369.559L210.015 369.868C205.271 385.419 200.586 400.532 197.483 416.517C194.587 415.618 190.468 415.034 187.408 414.396C149.774 406.548 108.867 392.285 76.3762 371.71C77.1854 369.712 77.9113 367.107 78.6007 364.995C82.9956 351.528 87.8368 338.553 94.0715 325.813Z"/><path fill="#7DB3E2" d="M58.6617 452.939C97.448 472.005 143.477 484.383 186.113 490.422C187.921 490.678 190.854 491.05 192.499 491.657C193.154 507.301 194.933 521.206 198.187 536.593C199.592 543.238 201.402 550.054 202.708 556.593C162.396 554.603 117.812 542.724 78.9491 531.906C71.4389 529.815 62.7363 525.786 55.1032 523.22C54.465 499.839 55.5668 476.131 58.6617 452.939Z"/><path fill="#4C82C8" d="M55.1032 523.22C62.7363 525.786 71.4389 529.815 78.9491 531.906C117.812 542.724 162.396 554.603 202.708 556.593L202.963 556.875C208.516 576.797 212.969 588.668 220.611 607.985C226.487 607.976 239.594 607.565 245.024 608.057C239.136 608.86 226.821 608.522 220.633 608.464C209.87 608.379 197.593 607.434 186.769 606.822C142.644 604.328 103.87 597.55 61.2521 586.086C58.1769 563.812 56.3457 545.697 55.1032 523.22Z"/><path fill="#9ECBEE" d="M61.2521 586.086C103.87 597.55 142.644 604.328 186.769 606.822C197.593 607.434 209.87 608.379 220.633 608.464C224.322 617.328 227.393 623.446 231.788 632.008C230.513 632.683 229.704 632.635 228.22 632.856C173.139 633.004 120.078 626.605 66.71 613.066C64.6771 605.859 62.6511 593.58 61.2521 586.086Z"/><path fill="#7DB3E2" d="M798.967 155.806C813.305 167.921 834.015 186.093 846.222 200.368C860.386 214.846 878.301 238.039 889.77 254.623C885.312 262.501 879.714 269.513 874.564 276.906C863.344 293.012 850.515 307.73 838.416 323.119C826.8 310.491 809.288 295.561 796.482 283.91L796.529 283.676C789.789 277.444 780.01 270.422 772.573 264.869C764.051 258.507 754.704 251.283 745.886 245.479C755.016 231.16 765.567 218.029 774.38 203.032C783.576 187.381 790.611 171.589 798.967 155.806Z"/><path fill="#4C82C8" d="M846.222 200.368C860.386 214.846 878.301 238.039 889.77 254.623C885.312 262.501 879.714 269.513 874.564 276.906C863.344 293.012 850.515 307.73 838.416 323.119C826.8 310.491 809.288 295.561 796.482 283.91L796.529 283.676C797.747 282.628 803.591 273.867 804.783 272.028C817.269 252.77 838.737 221.646 846.222 200.368Z"/></svg>