<?xml version="1.0" encoding="utf-8" ?><svg xmlns="http://www.w3.org/2000/svg" xmlns:xlink="http://www.w3.org/1999/xlink" width="1024" height="1024" viewBox="0 0 1024 1024"><path fill="#E2C292" d="M463.844 0L559.813 0C560.736 1.49248 561.032 2.06902 562.951 2.27808C623.173 8.84 681.166 25.6663 735.596 52.2891C738.191 53.5581 740.97 55.0724 743.66 56.3049L746.103 57.7143C781.345 75.4482 815.203 99.4653 845.316 125.014C854.445 132.759 862.95 141.802 871.708 149.645C887.922 164.891 903.664 184.017 917.394 201.458C976.93 277.085 1012.8 370.284 1021.65 465.986C1021.82 467.764 1022.26 477.154 1024 477.331L1024 552.52L1023.25 552.467C1021.85 555.253 1018.78 580.683 1018.1 585.646C987.325 811.501 798.268 995.652 571.683 1020.31C567.982 1020.72 553.896 1021.54 551.907 1024L473.101 1024C472.413 1023.29 471.798 1022.73 470.763 1022.64C374.043 1013.76 282.726 978.744 205.064 920.321C187.863 907.381 171.283 894.064 155.847 878.645C65.5305 791.531 10.5949 674.823 1.35715 549.701C1.19555 547.513 1.28949 544.552 0 542.805L0 485.14C0.775053 484.168 0.989936 483.429 1.09252 482.212C2.7038 463.089 4.28157 444.23 7.82205 425.327C17.5506 373.385 33.9598 323.461 58.588 276.668C121.994 156.195 233.005 62.4599 363.506 22.82C383.935 16.1347 404.689 11.2716 425.826 7.42756C437.78 5.25348 449.946 3.92404 461.915 1.96906C463.233 1.75379 463.307 1.03894 463.844 0Z"/><path fill="#4C4240" d="M721.789 81.0847C763.356 101.697 799.375 126.769 833.258 158.26C835.078 159.951 837.463 162.28 839.401 163.717C845.897 160.554 854.565 157.476 861.298 154.414C863.937 153.213 869.523 150.485 871.708 149.645C887.922 164.891 903.664 184.017 917.394 201.458C976.93 277.085 1012.8 370.284 1021.65 465.986C1021.82 467.764 1022.26 477.154 1024 477.331L1024 552.52L1023.25 552.467C1021.85 555.253 1018.78 580.683 1018.1 585.646C987.325 811.501 798.268 995.652 571.683 1020.31C567.982 1020.72 553.896 1021.54 551.907 1024L473.101 1024C472.413 1023.29 471.798 1022.73 470.763 1022.64C374.043 1013.76 282.726 978.744 205.064 920.321C187.863 907.381 171.283 894.064 155.847 878.645C157.135 878.086 157.511 877.646 158.995 878.129C173.063 882.711 187.413 885.199 202.002 887.453C207.409 888.288 213.969 890.627 218.997 891.202C221.339 892.816 225.063 895.539 227.43 896.826L228.075 896.894C234.46 897.605 241.444 899.087 247.813 900.225C265.339 903.355 282.63 905.585 300.466 905.855C306.647 905.948 313.521 905.764 319.652 906.137L320.685 906.481C331.441 906.377 344.66 904.606 355.534 903.5C402.413 898.735 451.997 887.136 496.522 871.308C494.894 865.431 491.862 859.6 489.726 853.846C485.546 842.592 481.82 831.021 478.265 819.554C476.742 814.644 467.969 786.392 469.464 783.562C474.121 782.653 481.251 779.721 485.911 778.032C675.079 709.709 876.087 531.477 847.373 311.325C835.894 231.357 788.531 159.872 721.681 115.155C714.227 110.169 706.579 105.473 699.165 100.496C703.76 97.2031 717.718 85.0438 721.789 81.0847Z"/><path fill="#A0805E" d="M721.789 81.0847C763.356 101.697 799.375 126.769 833.258 158.26C835.078 159.951 837.463 162.28 839.401 163.717C906.178 226.962 953.13 305.714 975.556 394.749C977.291 401.635 978.338 409.759 980.355 416.378C978.777 421.195 976.064 426.402 974.095 431.18C931.955 533.435 862.471 624.979 780.805 698.967C723.133 751.216 660.775 796.404 590.883 830.886C571.663 840.446 552.98 849.161 533.099 857.493C520.936 862.591 508.618 866.568 496.522 871.308C494.894 865.431 491.862 859.6 489.726 853.846C485.546 842.592 481.82 831.021 478.265 819.554C476.742 814.644 467.969 786.392 469.464 783.562C474.121 782.653 481.251 779.721 485.911 778.032C675.079 709.709 876.087 531.477 847.373 311.325C835.894 231.357 788.531 159.872 721.681 115.155C714.227 110.169 706.579 105.473 699.165 100.496C703.76 97.2031 717.718 85.0438 721.789 81.0847Z"/><path fill="#0A1117" d="M839.401 163.717C845.897 160.554 854.565 157.476 861.298 154.414C863.937 153.213 869.523 150.485 871.708 149.645C887.922 164.891 903.664 184.017 917.394 201.458C976.93 277.085 1012.8 370.284 1021.65 465.986C1021.82 467.764 1022.26 477.154 1024 477.331L1024 552.52L1023.25 552.467C1021.85 555.253 1018.78 580.683 1018.1 585.646C987.325 811.501 798.268 995.652 571.683 1020.31C567.982 1020.72 553.896 1021.54 551.907 1024L473.101 1024C472.413 1023.29 471.798 1022.73 470.763 1022.64C374.043 1013.76 282.726 978.744 205.064 920.321C187.863 907.381 171.283 894.064 155.847 878.645C157.135 878.086 157.511 877.646 158.995 878.129C173.063 882.711 187.413 885.199 202.002 887.453C207.409 888.288 213.969 890.627 218.997 891.202C221.339 892.816 225.063 895.539 227.43 896.826L228.075 896.894C234.46 897.605 241.444 899.087 247.813 900.225C265.339 903.355 282.63 905.585 300.466 905.855C306.647 905.948 313.521 905.764 319.652 906.137L320.685 906.481C332.358 921.826 353.246 940.792 367.345 954.142C371.744 958.308 384.504 968.439 387.641 972.675C447.47 991.291 530.291 993.921 591.554 982.951C691.557 964.692 783.82 918.673 854.965 845.641C969.12 728.459 1009.44 575.733 980.355 416.378C978.338 409.759 977.291 401.635 975.556 394.749C953.13 305.714 906.178 226.962 839.401 163.717Z"/><path fill="#272B2F" d="M227.43 896.826L228.075 896.894C234.46 897.605 241.444 899.087 247.813 900.225C265.339 903.355 282.63 905.585 300.466 905.855C306.647 905.948 313.521 905.764 319.652 906.137L320.685 906.481C332.358 921.826 353.246 940.792 367.345 954.142C371.744 958.308 384.504 968.439 387.641 972.675C369.484 968.818 354.238 963.076 337.212 956.637C304.43 944.239 275.231 929.734 246.21 910.104C240.541 906.27 232.639 901.216 227.43 896.826Z"/><path fill="#CAA16D" d="M382.128 51.3051C396.001 46.9458 409.533 44.2832 423.823 41.5002C501.62 26.3484 585.027 31.5522 660.397 56.0369C680.334 62.5134 703.579 70.6515 721.789 81.0847C717.718 85.0438 703.76 97.2031 699.165 100.496C706.579 105.473 714.227 110.169 721.681 115.155C788.531 159.872 835.894 231.357 847.373 311.325C876.087 531.477 675.079 709.709 485.911 778.032C481.251 779.721 474.121 782.653 469.464 783.562L468.424 783.392C466.38 778.461 464.071 764.218 462.976 758.687C456.347 725.113 453.12 691.64 451.75 657.431C445.896 511.317 490.617 363.397 572.508 242.675C600.612 201.247 633.664 163.472 669.219 128.392C678.532 119.204 689.719 110.04 698.497 100.582L698.848 100.198C693.369 97.6075 687.467 94.1442 682.039 91.3032C608.84 52.9954 523.32 42.0838 442.265 56.0515C426.01 58.8526 410.468 62.575 394.515 66.6661C387.174 63.1417 379.489 61.4613 371.605 59.7267C374.896 56.7722 378.291 55.1943 382.128 51.3051Z"/><path fill="#A0805E" d="M463.844 0L559.813 0C560.736 1.49248 561.032 2.06902 562.951 2.27808C623.173 8.84 681.166 25.6663 735.596 52.2891C738.191 53.5581 740.97 55.0724 743.66 56.3049L746.103 57.7143C781.345 75.4482 815.203 99.4653 845.316 125.014C854.445 132.759 862.95 141.802 871.708 149.645C869.523 150.485 863.937 153.213 861.298 154.414C854.565 157.476 845.897 160.554 839.401 163.717C837.463 162.28 835.078 159.951 833.258 158.26C799.375 126.769 763.356 101.697 721.789 81.0847C703.579 70.6515 680.334 62.5134 660.397 56.0369C585.027 31.5522 501.62 26.3484 423.823 41.5002C409.533 44.2832 396.001 46.9458 382.128 51.3051C378.291 55.1943 374.896 56.7722 371.605 59.7267C359.837 67.5032 341.29 79.6983 331.498 89.8093C308.976 108.735 274.021 147.641 258.623 172.431C251.855 181.313 243.607 196.313 238.111 206.114C206.239 262.948 183.322 328.664 173.144 392.999C172.051 399.906 169.332 411.849 168.882 418.35L167.928 418.639C168.863 420.383 166.123 443.761 165.786 447.967C161.066 506.983 163.51 567.485 175.79 625.483C177.22 632.237 179.239 642.819 181.616 649.194L182.099 649.333C182.343 653.438 186.821 665.912 188.034 670.673C197.347 707.236 213.843 743.453 230.656 777.224C236.589 789.14 246.813 805.081 253.634 817.173L254.069 817.498C259.064 825.126 263.842 833.215 268.953 840.654C284.7 863.572 301.583 885.012 319.652 906.137C313.521 905.764 306.647 905.948 300.466 905.855C282.63 905.585 265.339 903.355 247.813 900.225C241.444 899.087 234.46 897.605 228.075 896.894L227.43 896.826C225.063 895.539 221.339 892.816 218.997 891.202C213.969 890.627 207.409 888.288 202.002 887.453C187.413 885.199 173.063 882.711 158.995 878.129C157.511 877.646 157.135 878.086 155.847 878.645C65.5305 791.531 10.5949 674.823 1.35715 549.701C1.19555 547.513 1.28949 544.552 0 542.805L0 485.14C0.775053 484.168 0.989936 483.429 1.09252 482.212C2.7038 463.089 4.28157 444.23 7.82205 425.327C17.5506 373.385 33.9598 323.461 58.588 276.668C121.994 156.195 233.005 62.4599 363.506 22.82C383.935 16.1347 404.689 11.2716 425.826 7.42756C437.78 5.25348 449.946 3.92404 461.915 1.96906C463.233 1.75379 463.307 1.03894 463.844 0Z"/><path fill="#272B2F" d="M463.844 0L559.813 0C560.736 1.49248 561.032 2.06902 562.951 2.27808C623.173 8.84 681.166 25.6663 735.596 52.2891C738.191 53.5581 740.97 55.0724 743.66 56.3049L746.103 57.7143C781.345 75.4482 815.203 99.4653 845.316 125.014C854.445 132.759 862.95 141.802 871.708 149.645C869.523 150.485 863.937 153.213 861.298 154.414C854.565 157.476 845.897 160.554 839.401 163.717C837.463 162.28 835.078 159.951 833.258 158.26C799.375 126.769 763.356 101.697 721.789 81.0847C703.579 70.6515 680.334 62.5134 660.397 56.0369C585.027 31.5522 501.62 26.3484 423.823 41.5002C409.533 44.2832 396.001 46.9458 382.128 51.3051C257.563 87.0409 156.762 169.459 93.4406 282.636C40.386 377.462 24.098 484.851 40.051 592.107C43.1917 613.222 48.8807 634.022 54.5288 654.578C66.9033 697.009 87.2088 737.496 111.295 774.467C114.053 778.701 121.779 790.205 125.121 793.415C135.966 797.151 147.543 801.351 158.676 804.099C189.614 811.739 221.779 816.42 253.634 817.173L254.069 817.498C259.064 825.126 263.842 833.215 268.953 840.654C284.7 863.572 301.583 885.012 319.652 906.137C313.521 905.764 306.647 905.948 300.466 905.855C282.63 905.585 265.339 903.355 247.813 900.225C241.444 899.087 234.46 897.605 228.075 896.894L227.43 896.826C225.063 895.539 221.339 892.816 218.997 891.202C213.969 890.627 207.409 888.288 202.002 887.453C187.413 885.199 173.063 882.711 158.995 878.129C157.511 877.646 157.135 878.086 155.847 878.645C65.5305 791.531 10.5949 674.823 1.35715 549.701C1.19555 547.513 1.28949 544.552 0 542.805L0 485.14C0.775053 484.168 0.989936 483.429 1.09252 482.212C2.7038 463.089 4.28157 444.23 7.82205 425.327C17.5506 373.385 33.9598 323.461 58.588 276.668C121.994 156.195 233.005 62.4599 363.506 22.82C383.935 16.1347 404.689 11.2716 425.826 7.42756C437.78 5.25348 449.946 3.92404 461.915 1.96906C463.233 1.75379 463.307 1.03894 463.844 0Z"/><path fill="#4C4240" d="M125.121 793.415C135.966 797.151 147.543 801.351 158.676 804.099C189.614 811.739 221.779 816.42 253.634 817.173L254.069 817.498C259.064 825.126 263.842 833.215 268.953 840.654C284.7 863.572 301.583 885.012 319.652 906.137C313.521 905.764 306.647 905.948 300.466 905.855C282.63 905.585 265.339 903.355 247.813 900.225C241.444 899.087 234.46 897.605 228.075 896.894L227.43 896.826C225.063 895.539 221.339 892.816 218.997 891.202C216.986 889.255 214.315 887.174 212.143 885.347C187.444 864.581 164.178 842.113 143.564 817.249C137.515 809.952 129.915 801.619 125.121 793.415Z"/><path fill="#0A1117" d="M743.66 56.3049L746.103 57.7143C742.642 61.4965 737.52 63.3046 733.899 67.939L732.011 68.3045C735.175 64.5349 739.684 58.9523 743.66 56.3049Z"/><path fill="#16181A" d="M728.22 73.3591C729.582 71.3222 730.32 70.1172 732.011 68.3045L733.899 67.939C732.109 70.0585 730.295 71.5379 728.22 73.3591Z"/><path fill="#593715" d="M167.928 418.639C168.863 420.383 166.123 443.761 165.786 447.967C161.066 506.983 163.51 567.485 175.79 625.483C177.22 632.237 179.239 642.819 181.616 649.194C159.266 645.378 141.506 637.713 123.786 623.41C49.0916 563.122 71.5666 441.973 167.928 418.639Z"/><path fill="#89561C" d="M168.882 418.35C270.114 397.771 344.961 510.788 289.638 596.618C265.59 633.927 226.133 652.192 182.099 649.333L181.616 649.194C179.239 642.819 177.22 632.237 175.79 625.483C163.51 567.485 161.066 506.983 165.786 447.967C166.123 443.761 168.863 420.383 167.928 418.639L168.882 418.35Z"/><path fill="#CAA16D" d="M468.424 783.392L469.464 783.562C467.969 786.392 476.742 814.644 478.265 819.554C481.82 831.021 485.546 842.592 489.726 853.846C491.862 859.6 494.894 865.431 496.522 871.308C451.997 887.136 402.413 898.735 355.534 903.5C344.66 904.606 331.441 906.377 320.685 906.481L319.652 906.137C301.583 885.012 284.7 863.572 268.953 840.654C263.842 833.215 259.064 825.126 254.069 817.498C314.727 819.604 379.577 809.956 437.598 793.121C443.184 791.501 464.234 785.937 468.424 783.392Z"/><path fill="#F2E2C7" d="M371.605 59.7267C379.489 61.4613 387.174 63.1417 394.515 66.6661L394.507 66.8506C421.593 81.5609 419.343 123.081 405.971 145.896C379.183 191.603 319.524 210.209 272.831 183.209C268.93 180.954 260.894 176.303 258.623 172.431C274.021 147.641 308.976 108.735 331.498 89.8093C341.29 79.6983 359.837 67.5032 371.605 59.7267Z"/><path fill="#E2C292" d="M371.605 59.7267C379.489 61.4613 387.174 63.1417 394.515 66.6661L394.507 66.8506C390.281 67.4073 383.772 69.8552 379.525 71.1913C369.381 74.3815 359.33 77.8185 349.502 81.8769C345.403 83.5696 335.235 89.2938 331.498 89.8093C341.29 79.6983 359.837 67.5032 371.605 59.7267Z"/></svg>