<?xml version="1.0" encoding="utf-8" ?><svg xmlns="http://www.w3.org/2000/svg" xmlns:xlink="http://www.w3.org/1999/xlink" width="1024" height="1024" viewBox="0 0 1024 1024"><path fill="#13274F" d="M661.954 160.198C674.652 153.106 688.317 146.9 701.641 140.764C772.593 108.088 852.594 79.2037 931.9 87.458C966.356 91.2842 1000.7 108.97 1014.93 142.14C1017.01 146.986 1017.98 155.21 1024 155.862L1024 173.29L1022.99 173.862C1022.99 179.175 1023.7 185.221 1023.49 190.378C1022.91 205.114 1019.72 218.638 1016.42 232.906C1015.21 239.589 1011.49 249.277 1009.11 255.738C995.952 291.445 976.937 324.721 955.775 356.239C950.519 364.066 945.569 372.294 939.958 379.825C926.732 397.574 913.122 414.953 899.139 432.107C896.285 435.608 892.533 439.834 890.01 443.422C893.967 474.633 896.235 506.298 893.916 537.674C886.676 635.659 845.853 727.955 773.057 794.583C711.794 850.657 639.303 885.138 556.445 894.41C492.027 901.732 418.321 893.281 359.792 864.216C354.395 866.723 349.256 869.698 343.89 872.256C326.23 880.679 308.168 888.8 290.104 896.327C230.395 921.206 129.712 953.743 66.5176 930.827C43.2742 922.399 23.7518 907.057 13.3157 884.304C7.95532 872.618 4.40281 858.1 3.96105 845.206C3.96007 839.041 4.01752 833.452 4.47022 827.3C4.8 822.817 5.77214 817.349 5.8416 813.023C7.51847 802.425 9.25446 791.374 12.3817 780.939C28.959 725.623 58.1931 673.455 91.1612 626.271C99.9518 614.066 108.976 602.022 118.048 590.025C122.518 584.115 128.219 578.399 132.194 572.198C91.3754 312.646 330.34 84.1763 587.795 137.274C614.937 142.872 636.35 150.318 661.954 160.198ZM147.695 660.841C148.899 660.114 151.04 657.533 152.086 656.37C151.631 653.93 151.419 651.081 149.568 649.394C148.054 651.489 144.026 656.181 144.402 658.962C144.587 660.332 146.488 660.572 147.695 660.841ZM215.621 779.226C221.624 778.501 227.93 777.473 233.82 776.084C207.921 751.238 187.533 721.637 170.953 689.987C170.656 689.42 169.896 688.631 169.364 688.282C155.902 709.86 140.977 757.029 168.447 772.673C180.948 779.792 201.831 782.159 215.621 779.226Z"/><path fill="#F4CB8D" d="M266.19 767.409C240.534 741.015 221.224 716.361 202.81 684.308C157.978 605.994 146.186 508.4 170.865 421.604C201.649 313.34 277.772 227.945 381.856 184.998C523.254 126.655 687.183 170.057 784.308 287.421C797.649 303.541 808.621 318.164 818.866 336.507L813.596 343.893C779.398 393.499 737.841 436.811 694.72 478.598C598.912 571.439 491.104 653.143 374.9 718.815C368.053 723.003 360.167 727.011 353.006 730.764C329.285 743.195 304.255 754.512 279.001 763.51L274.859 764.768C272.391 765.672 268.797 766.636 266.19 767.409Z"/><path fill="#E49843" d="M266.19 767.409C240.534 741.015 221.224 716.361 202.81 684.308C157.978 605.994 146.186 508.4 170.865 421.604C201.649 313.34 277.772 227.945 381.856 184.998C523.254 126.655 687.183 170.057 784.308 287.421C797.649 303.541 808.621 318.164 818.866 336.507L813.596 343.893C807.867 332.031 787.017 302.846 778.251 292.351C758.336 265.755 721.976 237.155 693.982 219.151C687.363 214.894 677.951 210.064 670.955 206.371C666.994 208.137 660.744 209.066 656.385 210.146C498.181 249.363 362.616 379.229 298.676 526.901C269.722 593.77 250.133 692.833 278.726 762.843L279.001 763.51L274.859 764.768C272.391 765.672 268.797 766.636 266.19 767.409Z"/><path fill="#E49843" d="M212.352 683.546C212.627 651.65 216.041 616.412 223.585 585.403C265.86 411.63 396.373 261.673 558.969 189.174C569.129 184.644 579.901 181.307 590.478 176.559C618.675 184.47 644.764 192.798 670.955 206.371C666.994 208.137 660.744 209.066 656.385 210.146C498.181 249.363 362.616 379.229 298.676 526.901C269.722 593.77 250.133 692.833 278.726 762.843L279.001 763.51L274.859 764.768C252.347 740.144 228.138 713.237 212.352 683.546Z"/><path fill="#F4CB8D" d="M486.122 168.741C488.435 168.206 498.182 168.44 501.518 168.267C523.053 167.15 542.779 168.19 564.075 171.496C572.205 172.758 583.173 175.671 590.478 176.559C579.901 181.307 569.129 184.644 558.969 189.174C396.373 261.673 265.86 411.63 223.585 585.403C216.041 616.412 212.627 651.65 212.352 683.546C207.728 677.32 203.108 667.598 199.801 660.502C190.309 640.137 182.44 618.719 177.028 596.903C176.051 592.964 173.725 584.674 173.53 580.708C174.962 578.659 175.952 572.945 176.499 570.301C180.563 549.981 185.82 530.689 192.406 511.039C205.975 470.549 225.861 432.181 247.723 395.593C269.489 359.165 296.987 325.328 325.944 294.415C352.985 265.547 382.432 239.363 414.362 216.012C430.395 204.221 445.777 193.382 462.901 183.165C465.928 181.359 487.086 170.495 487.489 169.397L486.122 168.741Z"/><path fill="#FEFEFD" d="M266.19 767.409C240.534 741.015 221.224 716.361 202.81 684.308C157.978 605.994 146.186 508.4 170.865 421.604C201.649 313.34 277.772 227.945 381.856 184.998C523.254 126.655 687.183 170.057 784.308 287.421C797.649 303.541 808.621 318.164 818.866 336.507L813.596 343.893C807.867 332.031 787.017 302.846 778.251 292.351C758.336 265.755 721.976 237.155 693.982 219.151C687.363 214.894 677.951 210.064 670.955 206.371C644.764 192.798 618.675 184.47 590.478 176.559C583.173 175.671 572.205 172.758 564.075 171.496C542.779 168.19 523.053 167.15 501.518 168.267C498.182 168.44 488.435 168.206 486.122 168.741C464.435 171.407 446.919 173.483 425.438 179.281C352.142 199.065 287.263 242.878 240.558 302.598C181.937 377.972 158.358 467.044 170.453 561.495C171.28 567.951 172.232 574.336 173.53 580.708C173.725 584.674 176.051 592.964 177.028 596.903C182.44 618.719 190.309 640.137 199.801 660.502C203.108 667.598 207.728 677.32 212.352 683.546C228.138 713.237 252.347 740.144 274.859 764.768C272.391 765.672 268.797 766.636 266.19 767.409Z"/><path fill="#E49843" d="M778.251 292.351C787.017 302.846 807.867 332.031 813.596 343.893C779.398 393.499 737.841 436.811 694.72 478.598C598.912 571.439 491.104 653.143 374.9 718.815C375.444 708.554 377.284 697.142 379.283 686.944C414.73 506.117 568.552 352.819 743.186 301.396C754.394 298.096 767.513 296.275 778.251 292.351Z"/><path fill="#FEFEFD" d="M892.77 108.708C892.84 108.699 892.909 108.686 892.979 108.681C920.221 106.734 954.655 110.392 976.19 128.286C991.606 141.096 999.433 158.936 1001.13 178.645C1006.4 239.909 952.506 324.184 917.508 371.637C904.208 389.67 889.711 407.235 875.257 424.354C852.569 451.225 828.849 476.723 804.396 501.975C767.543 540.031 729.24 576.59 689.18 611.277C657.541 638.673 624.965 665.407 591.551 690.617C548.142 723.367 503.053 753.633 456.913 782.37C365.383 839.377 241.942 907.435 133.273 916.479C105.262 918.811 71.6413 916.289 49.3645 897.177C34.6257 884.532 27.0044 864.117 25.7068 845.105C21.3535 781.319 69.2305 700.705 103.624 649.482C114.16 633.791 125.548 616.399 137.966 602.242C140.622 613.998 144.178 625.483 147.793 636.971L143.841 641.485C13.0004 816.995 98.0964 891.504 283.836 819.309C290.34 816.78 296.939 814.227 303.405 811.534C353.509 790.671 400.434 763.81 446.227 734.83C591.078 643.116 723.162 529.916 834.618 399.559C871.41 356.449 953.063 245.911 928.277 187.244C899.767 119.764 760.731 165.963 712.054 186.541C704.863 181.93 696.708 177.323 689.291 173.075C698.016 168.748 707.012 164.973 715.68 160.749C772.973 132.83 828.89 113.812 892.77 108.708Z"/><path fill="#F4CB8D" d="M855.937 480.396C858.606 477.02 861.269 474.371 864.356 471.383C866.53 497.069 867.218 523.012 864.925 548.622C858.945 615.42 829.832 687.569 786.076 738.542C723.559 811.369 635.018 858.541 538.964 866.258C483.362 870.726 445.524 864.419 393.26 848.258C397.77 845.324 401.222 843.009 406.014 840.555C409.734 838.612 413.166 836.864 416.971 835.1C437.873 822.096 458.783 809.737 479.637 796.473C620.082 707.15 742.897 602.576 855.937 480.396Z"/><path fill="#E49843" d="M855.937 480.396C857.132 493.785 857.397 505.104 857.522 518.422C850.072 536.825 835.177 558.976 824.013 575.712C735.189 708.861 591.937 809.08 432.453 833.52C429.556 833.964 419.276 835.74 416.971 835.1C437.873 822.096 458.783 809.737 479.637 796.473C620.082 707.15 742.897 602.576 855.937 480.396Z"/><path fill="#E49843" d="M855.937 480.396C858.606 477.02 861.269 474.371 864.356 471.383C866.53 497.069 867.218 523.012 864.925 548.622C858.945 615.42 829.832 687.569 786.076 738.542C723.559 811.369 635.018 858.541 538.964 866.258C483.362 870.726 445.524 864.419 393.26 848.258C397.77 845.324 401.222 843.009 406.014 840.555C416.371 848.778 468.419 856.621 483.047 857.401C485.873 857.552 493.728 858.633 496.488 858.43C500.042 855.837 522.36 851.68 527.68 850.291C547.905 845.009 567.185 838.177 586.702 830.796C627.593 815.331 663.897 795.049 699.772 770.265C719.834 756.405 741.063 739.114 759.355 722.783C774.315 709.427 789.328 692.09 802.724 677.168C810.018 668.66 816.274 659.016 823.213 650.25C825.983 646.75 833.429 633.745 836.193 632.567C838.015 629.134 841.171 619.301 842.47 615.275C853.145 582.197 857.364 552.861 857.522 518.422C857.397 505.104 857.132 493.785 855.937 480.396Z"/><path fill="#FEFEFD" d="M855.937 480.396C858.606 477.02 861.269 474.371 864.356 471.383C866.53 497.069 867.218 523.012 864.925 548.622C858.945 615.42 829.832 687.569 786.076 738.542C723.559 811.369 635.018 858.541 538.964 866.258C483.362 870.726 445.524 864.419 393.26 848.258C397.77 845.324 401.222 843.009 406.014 840.555C416.371 848.778 468.419 856.621 483.047 857.401C485.873 857.552 493.728 858.633 496.488 858.43C554.861 858.923 609.562 849.691 662.251 823.737C741.511 784.694 807.708 717.195 836.193 632.567C838.015 629.134 841.171 619.301 842.47 615.275C853.145 582.197 857.364 552.861 857.522 518.422C857.397 505.104 857.132 493.785 855.937 480.396Z"/><path fill="#9AD0E2" d="M843.833 161.713C861.206 159.409 889.221 163.753 903.869 174.084C913.103 180.596 921.271 191.273 922.664 202.72C927.061 250.818 893.398 302.926 867.452 341.218C853.609 361.649 833.011 387.986 816.968 406.253C706.92 531.553 578.309 640.223 437.227 729.039C401.388 751.601 365.573 773.25 327.178 791.363C285.846 810.478 241.341 825.872 196.656 834.488C159.834 841.624 98.9982 840.181 91.2677 793.167C83.6709 746.966 119.57 690.73 144.827 654.147L150.533 646.411C155.078 656.159 160.18 669.293 164.592 679.501C146.877 707.004 127.892 761.808 164.972 782.107C191.197 796.463 227.16 787.707 254.624 780.54C303.486 767.789 349.819 744.522 393.074 718.859C518.55 647.463 632.175 555.555 733.639 453.151C764.327 422.179 793.244 387.492 818.84 352.163C828.015 339.498 837.422 321.501 845.499 307.953C856.771 289.047 871.175 252.157 864.315 230.776C849.687 185.189 786.257 205.322 753.505 214.871L723.232 192.286C756.124 176.931 807.555 164.518 843.833 161.713ZM147.695 660.841C148.899 660.114 151.04 657.533 152.086 656.37C151.631 653.93 151.419 651.081 149.568 649.394C148.054 651.489 144.026 656.181 144.402 658.962C144.587 660.332 146.488 660.572 147.695 660.841Z"/><path fill="#9AD0E2" fill-opacity="0.81176472" d="M149.568 649.394C151.419 651.081 151.631 653.93 152.086 656.37C151.04 657.533 148.899 660.114 147.695 660.841C146.488 660.572 144.587 660.332 144.402 658.962C144.026 656.181 148.054 651.489 149.568 649.394Z"/><path fill="#6466B7" d="M805.571 211.794C837.828 209.054 862.113 220.007 855.436 257.167C852.38 274.176 845.507 291.648 835.837 305.937C832.54 301.023 829.419 296.504 825.922 291.73C810.406 269.901 783.099 238.375 761.624 222.01C776.373 217.092 790.168 213.573 805.571 211.794Z"/><path fill="#6466B7" fill-opacity="0.98823529" d="M169.364 688.282C169.896 688.631 170.656 689.42 170.953 689.987C187.533 721.637 207.921 751.238 233.82 776.084C227.93 777.473 221.624 778.501 215.621 779.226C201.831 782.159 180.948 779.792 168.447 772.673C140.977 757.029 155.902 709.86 169.364 688.282Z"/><path fill="#6466B7" fill-opacity="0.64705884" d="M1016.42 232.906C1019.72 218.638 1022.91 205.114 1023.49 190.378C1023.7 185.221 1022.99 179.175 1022.99 173.862L1024 173.29L1024 242.913C1023.22 242.372 1017.1 234.128 1016.42 232.906Z"/><path fill="#6466B7" fill-opacity="0.42352942" d="M0 799.306C0.940277 799.792 1.6458 800.097 1.84275 801.484C2.56031 806.537 4.18229 808.886 5.8416 813.023C5.77214 817.349 4.8 822.817 4.47022 827.3C4.01752 833.452 3.96007 839.041 3.96105 845.206C3.65112 843.912 3.67162 843.733 3.15556 842.527L3.12002 844.515L2.60775 844.646L2.09501 843.419L1.51741 843.498C1.79949 845.523 1.69042 845.474 2.46562 847.242L1.56585 847.664L0 847.011L0 799.306Z"/></svg>