<?xml version="1.0" encoding="utf-8" ?><svg xmlns="http://www.w3.org/2000/svg" xmlns:xlink="http://www.w3.org/1999/xlink" width="1024" height="1024" viewBox="0 0 1024 1024"><path fill="#FBC506" d="M443.171 240.949C482.989 229.11 539.703 229.687 579.601 240.95C581.307 241.99 585.178 242.985 587.21 243.015C603.577 245.945 629.224 258.092 644.036 265.782C647.209 267.575 654.779 272.638 657.696 273.834C666.878 279.702 675.828 285.432 684.406 292.18C693.195 299.093 700.9 306.875 708.921 314.641C709.835 316.094 709.542 316.026 710.89 316.814C723.029 328.371 740.326 348.842 748.449 363.546C749.617 365.663 754.926 375.504 756.16 376.9C762.78 389.108 767.887 399.832 772.749 412.879C775.594 420.514 777.654 428.395 780.324 435.697C780.772 438.83 781.909 442.116 782.84 445.164C791.4 477.415 792.314 516.39 788.597 549.39C787.484 559.276 784.841 569.096 783.785 577.981C782.74 581.548 781.538 586.163 780.362 589.597C778.847 594.381 777.349 599.184 775.791 603.95C765.335 635.933 748.093 666.033 726.528 691.825C722.51 696.631 716.93 703.711 712.372 707.934C710.211 709.897 708.57 711.333 706.664 713.584C694.182 726.566 672.75 743.279 656.818 751.74C654.922 752.714 648.963 755.591 647.47 756.576C629.276 765.29 606.123 776.398 586.629 781.461C584.461 782.005 579.543 783.128 577.714 783.875C562.335 787.466 536.506 789.621 520.606 790.056L499.959 790.021C488.294 790.102 471.714 786.842 460.206 784.583C455.208 783.602 450.083 781.961 444.96 781.137C442.651 780.053 441.851 779.662 439.394 779.064C424.416 776.778 389.837 762.082 376.678 754.315C373.397 752.239 369.053 750.026 365.58 748.138C351.906 741.394 326.982 721.813 316.807 711.032C315.793 708.796 315.327 708.422 313.295 707.257C295.337 688.52 278.579 668.378 266.684 645.178C256.994 626.278 248.369 606.079 243.055 585.485C243.042 583.783 242.762 581.195 241.919 579.712C239.805 566.805 237.165 555.449 235.882 542.076C233.108 513.173 234.078 474.179 241.942 446.195C243.086 443.572 243.734 439.157 244.157 436.326L245.374 432.416C257.429 394.007 272.388 364.605 297.994 333.19C301.4 329.011 308.942 318.968 313.398 316.64C314.797 315.338 316.645 312.915 317.918 311.365C323.974 305.852 329.374 300.664 335.759 295.442C359.996 275.616 388.679 259.67 418 248.722C422.996 246.857 435.675 242.545 440.648 241.966C442.039 241.772 441.967 241.718 443.171 240.949Z"/><path fill="#FBD980" d="M499.64 291.059C621.082 284.384 724.969 377.36 731.754 498.795C738.54 620.231 645.658 724.202 524.229 731.098C402.643 738.004 298.508 644.976 291.714 523.384C284.92 401.792 378.042 297.742 499.64 291.059Z"/><path fill="#EDA004" d="M503.253 310.452C613.988 305.807 707.602 391.64 712.56 502.361C717.518 613.082 631.949 706.938 521.243 712.208C410.093 717.499 315.78 631.514 310.803 520.35C305.825 409.186 392.076 315.116 503.253 310.452Z"/><path fill="#EE7602" d="M1.11526 511.574L115.072 479.929C157.399 468.248 199.259 456.543 241.942 446.195C234.078 474.179 233.108 513.173 235.882 542.076C237.165 555.449 239.805 566.805 241.919 579.712C208.889 571.223 175.951 561.513 143.065 552.506C95.4374 539.462 48.4042 525.78 1.11526 511.574Z"/><path fill="#EE7602" d="M316.807 711.032C326.982 721.813 351.906 741.394 365.58 748.138C369.053 750.026 373.397 752.239 376.678 754.315C389.837 762.082 424.416 776.778 439.394 779.064C436.572 782.198 431.764 786.391 428.567 789.341L408.365 807.754L362.205 850.125C345.078 865.933 327.976 881.769 310.624 897.362C299.421 907.429 288.904 918.576 277.304 928.389C270.113 934.472 263.751 941.697 256.313 947.72C260.703 932.282 264.017 917.039 267.919 901.489L284.864 836.597L299.689 779.655C305.881 756.383 311.898 734.816 316.807 711.032Z"/><path fill="#EDA004" d="M365.58 748.138C369.053 750.026 373.397 752.239 376.678 754.315C370.425 762.914 358.491 784.772 353.893 791.721C346.244 803.283 280.205 911.815 276.306 913.766C276.172 912.92 289.891 890.649 291.464 887.76C313.423 847.423 334.752 806.711 356.147 766.075C359.156 760.36 362.835 754.393 365.384 748.593L365.58 748.138Z"/><path fill="#EE7602" d="M512.238 0L513.003 0C517.953 19.3219 523.612 38.6103 528.699 57.9295C531.975 70.3688 535.192 83.0326 538.706 95.386L555.574 153.593L574.48 221.149C576.141 226.99 577.957 235.845 579.601 240.95C539.703 229.687 482.989 229.11 443.171 240.949C443.988 235.128 449.564 218.849 451.482 212.406L467.437 157.704C477.895 122.78 487.513 87.5135 497.332 52.4139C502.246 34.8495 507.526 17.6774 512.238 0Z"/><path fill="#EE7602" d="M587.21 243.015C603.852 226.404 618.085 213.715 635.065 197.899L707.347 130.548C720.582 118.145 733.475 105.336 746.68 92.9124C752.1 87.8143 758.68 80.7316 764.563 76.5938C762.862 85.3929 759.841 95.7744 757.666 104.626L745.908 153.595C741.299 172.466 737.419 191.362 733.087 210.275L720.475 263.501C716.597 280.564 711.742 297.452 708.921 314.641C700.9 306.875 693.195 299.093 684.406 292.18C675.828 285.432 666.878 279.702 657.696 273.834C654.779 272.638 647.209 267.575 644.036 265.782C629.224 258.092 603.577 245.945 587.21 243.015Z"/><path fill="#EDA004" d="M735.495 131.944L736.078 133.093C732.23 141.877 727.557 149.88 723.334 158.385C712.935 179.333 701.396 199.24 689.698 219.466C679.331 237.392 669.196 256.573 657.696 273.834C654.779 272.638 647.209 267.575 644.036 265.782C647.401 259.704 652.096 254.058 655.864 248.171C670.363 225.519 687.204 204.171 701.796 181.611C712.756 164.667 724.077 148.535 735.495 131.944Z"/><path fill="#F2810D" d="M735.495 131.944C736.345 130.279 737.279 127.901 738.736 126.908C739.077 128.715 737.049 131.541 736.078 133.093L735.495 131.944Z"/><path fill="#EE7602" d="M243.055 585.485C248.369 606.079 256.994 626.278 266.684 645.178C278.579 668.378 295.337 688.52 313.295 707.257C303.684 708.48 290.213 712.453 280.495 714.943L231.421 727.329L76.6544 766.918C81.8779 760.551 88.4016 754.4 94.0539 748.317C144.134 694.414 192.555 638.997 243.055 585.485Z"/><path fill="#EE7602" d="M444.96 781.137C450.083 781.961 455.208 783.602 460.206 784.583C471.714 786.842 488.294 790.102 499.959 790.021L520.606 790.056C536.506 789.621 562.335 787.466 577.714 783.875C572.255 809.264 564.51 834.834 557.581 859.89L530.203 959.603L519.615 998.017C517.351 1006.16 514.427 1015.76 512.701 1024L511.781 1024C499.261 975.513 484.919 926.599 471.711 878.143L454.205 814.26C451.274 803.633 448.513 791.418 444.96 781.137Z"/><path fill="#EDA004" d="M499.959 790.021L520.606 790.056C519.781 799.457 520.218 808.545 519.618 817.892C516.328 869.101 514.869 920.485 511.635 971.742C510.933 967.549 510.799 957.545 510.59 952.824L508.965 912.075C508.331 895.31 507.157 878.466 506.614 861.632C506.317 852.396 504.669 841.876 504.331 832.463C503.846 818.932 504.232 804.898 503.393 791.43C502.414 790.117 502.087 790.47 499.959 790.021Z"/><path fill="#EE7602" d="M76.0052 256.37C109.647 265.791 147.571 274.262 181.663 282.715L313.398 316.64C308.942 318.968 301.4 329.011 297.994 333.19C272.388 364.605 257.429 394.007 245.374 432.416L244.157 436.326C229.226 419.757 213.537 403.803 198.293 387.541L104.853 287.097C95.5357 276.95 84.9043 266.558 76.0052 256.37Z"/><path fill="#EE7602" d="M782.84 445.164C791.407 446.983 800.635 449.932 809.186 452.253C827.59 457.247 845.962 462.921 864.424 467.683C905.631 478.313 946.895 489.382 987.684 501.509C996.551 504.145 1005.72 506.255 1014.58 508.968C1017 509.71 1022.02 510.959 1024 511.879L847.87 560.636C829.255 565.91 810.371 570.378 791.756 575.681C789.082 576.443 786.391 576.979 783.785 577.981C784.841 569.096 787.484 559.276 788.597 549.39C792.314 516.39 791.4 477.415 782.84 445.164Z"/><path fill="#EE7602" d="M256.278 75.0525C259.975 78.7963 263.95 82.6345 267.825 86.1958C312.341 127.112 356.42 168.516 401.721 208.57C414.48 219.853 427.056 231.682 440.648 241.966C435.675 242.545 422.996 246.857 418 248.722C388.679 259.67 359.996 275.616 335.759 295.442C329.374 300.664 323.974 305.852 317.918 311.365C315.836 306.957 312.52 291.562 311.132 285.895L298.084 232.947L262.362 96.9688C260.443 89.6044 258.163 82.4694 256.278 75.0525Z"/><path fill="#EE7602" d="M710.89 316.814C732.327 312.875 760.953 304.173 782.685 298.63L949.107 255.68C945.178 261.554 937.512 268.692 932.475 273.959L903.469 304.482C870.005 339.938 836.345 375.305 803.569 411.379C796.305 419.374 786.949 428.087 780.324 435.697C777.654 428.395 775.594 420.514 772.749 412.879C767.887 399.832 762.78 389.108 756.16 376.9C754.926 375.504 749.617 365.663 748.449 363.546C740.326 348.842 723.029 328.371 710.89 316.814Z"/><path fill="#EDA004" d="M748.449 363.546C753.321 360.012 759.242 357.07 764.55 354.145L788.324 340.913C819.904 323.332 851.246 305.296 884.036 290.109C886.854 288.804 905.907 278.882 906.444 278.832C905.225 280.408 883.937 293.456 880.197 295.913C847.532 317.375 815.255 339.516 782.365 360.614C780.563 361.77 755.892 377.224 756.16 376.9C754.926 375.504 749.617 365.663 748.449 363.546Z"/><path fill="#EE7602" d="M780.362 589.597C792.824 601.829 803.999 614.304 816.002 626.895L893.909 709.591L932.167 749.836C937.119 755.024 944.043 761.431 948.338 766.791C940.211 764.986 932.024 762.573 923.965 760.394C853.938 741.457 782.143 727.759 712.372 707.934C716.93 703.711 722.51 696.631 726.528 691.825C748.093 666.033 765.335 635.933 775.791 603.95C777.349 599.184 778.847 594.381 780.362 589.597Z"/><path fill="#EE7602" d="M706.664 713.584C709.486 722.894 712.321 736.387 714.786 746.214L730.288 806.875L767.115 946.488C761.388 942.916 747.899 929.504 742.247 924.277L692.206 877.885L623.906 815.421L596.448 790.278C593.607 787.656 589.125 783.953 586.629 781.461C606.123 776.398 629.276 765.29 647.47 756.576C648.963 755.591 654.922 752.714 656.818 751.74C672.75 743.279 694.182 726.566 706.664 713.584Z"/><path fill="#EDA004" d="M647.47 756.576C648.963 755.591 654.922 752.714 656.818 751.74L706.263 837.322C715.262 852.852 724.57 868.13 732.825 884.048C735.379 888.972 738.697 892.908 739.928 898.517C739.642 898.396 708.862 851.162 705.303 846.18C685.165 817.993 666.493 787.363 648.267 757.802C647.458 756.491 648.406 757.773 647.47 756.576Z"/></svg>