<?xml version="1.0" encoding="utf-8" ?><svg xmlns="http://www.w3.org/2000/svg" xmlns:xlink="http://www.w3.org/1999/xlink" width="1024" height="1024" viewBox="0 0 1024 1024"><path fill="#1D2867" d="M506.189 8.23398C616.855 6.04002 729.762 45.7241 817.209 112.839C834.009 125.733 850.43 137.928 864.652 153.729C895.903 147.375 945.014 148.419 972.947 164.837C1029.44 198.042 1005.27 268.424 978.07 313.739C981.565 321.101 984.502 331.522 987.071 339.392C1036.97 492.236 1018.88 665.792 926.119 798.9C832.773 932.843 681.876 1012.24 518.625 1014.69C482.15 1014.37 450.839 1012.42 414.855 1005.3C320.108 986.576 224.067 936.468 155.017 869.029C97.0892 878.519 12.162 867.863 16.9288 789.648C18.6431 761.518 33.0307 739.2 45.2092 714.873C28.6687 673.403 18.3111 628.194 12.2133 584.071C9.71503 565.994 9.04089 546.026 8.34373 527.737C4.58936 429.247 32.139 329.755 84.6105 246.437C101.108 219.371 120.384 194.214 141.908 170.982C177.051 133.054 216.945 100.558 262.238 75.4136C271.172 70.454 280.063 64.6344 289.282 60.1329C338.281 36.2085 390.614 20.0721 444.63 12.5996C463.697 9.99049 487.111 8.8594 506.189 8.23398Z"/><path fill="#1BA7AF" d="M131.428 411.949C133.413 406.455 134.851 400.303 136.718 394.692C163.55 314.044 219.347 241.595 290.575 194.969C353.167 153.996 430.928 132.583 505.877 136.214C521.147 136.953 536.581 137.389 551.79 140.196C559.778 141.644 567.594 143.145 575.55 144.762C629.252 157.034 677.923 180.617 721.758 213.982C730.293 220.479 740.39 229.855 748.651 237.044C759.705 247.633 774.122 262.326 783.318 274.617C796.362 290.838 820.061 326.066 827.169 345.543C809.61 366.165 791.003 387.176 771.847 406.347C741.315 436.41 709.001 464.54 675.479 491.217C651.688 510.151 627.432 529.813 602.507 547.274C571.425 568.071 540.743 591.589 508.746 610.913C475.648 630.901 441.031 652.632 406.804 670.693C343.587 704.052 275.32 736.024 206.41 754.94C190.913 736.484 176.371 718.274 165.072 696.845C163.614 694.079 160.893 689.47 159.685 686.756C149.44 668.536 143.387 652.349 136.725 632.759C115.402 564.18 110.453 507.109 125.688 436.114C127.404 428.168 129.113 419.697 131.428 411.949Z"/><path fill="#1BA7AF" d="M136.725 632.759C217.698 613.965 296.36 580.818 368.939 541.463C500.726 470.005 625.04 378.869 725.246 266.982C733.719 257.521 740.385 246.765 748.383 237.355L748.651 237.044C759.705 247.633 774.122 262.326 783.318 274.617C796.362 290.838 820.061 326.066 827.169 345.543C809.61 366.165 791.003 387.176 771.847 406.347C741.315 436.41 709.001 464.54 675.479 491.217C651.688 510.151 627.432 529.813 602.507 547.274C571.425 568.071 540.743 591.589 508.746 610.913C475.648 630.901 441.031 652.632 406.804 670.693C343.587 704.052 275.32 736.024 206.41 754.94C190.913 736.484 176.371 718.274 165.072 696.845C163.614 694.079 160.893 689.47 159.685 686.756C149.44 668.536 143.387 652.349 136.725 632.759Z"/><path fill="#5BECEE" d="M136.725 632.759C217.698 613.965 296.36 580.818 368.939 541.463C500.726 470.005 625.04 378.869 725.246 266.982C733.719 257.521 740.385 246.765 748.383 237.355L748.651 237.044C759.705 247.633 774.122 262.326 783.318 274.617C774.977 287.159 766.012 300.97 756.437 312.504C694.726 386.835 620.56 449.099 541.787 504.544C447.324 571.032 345.29 628.734 235.397 665.436C212.991 672.935 183.063 683.152 159.685 686.756C149.44 668.536 143.387 652.349 136.725 632.759Z"/><path fill="#1BA7AF" d="M131.428 411.949C133.413 406.455 134.851 400.303 136.718 394.692C163.55 314.044 219.347 241.595 290.575 194.969C353.167 153.996 430.928 132.583 505.877 136.214C521.147 136.953 536.581 137.389 551.79 140.196C537.685 151.736 525.226 164.99 510.96 176.442C454.073 222.107 396.579 263.609 334.886 302.568C326.984 307.558 318.807 312.14 310.83 317.012C269.481 342.265 227.264 366.452 183.616 387.544L151.786 402.982C147.924 404.85 135.003 411.242 131.428 411.949Z"/><path fill="#5BECEE" d="M551.79 140.196C559.778 141.644 567.594 143.145 575.55 144.762C574.618 150.944 489.319 218.694 477.513 227.476C369.927 307.508 249.548 383.902 125.688 436.114C127.404 428.168 129.113 419.697 131.428 411.949C135.003 411.242 147.924 404.85 151.786 402.982L183.616 387.544C227.264 366.452 269.481 342.265 310.83 317.012C318.807 312.14 326.984 307.558 334.886 302.568C396.579 263.609 454.073 222.107 510.96 176.442C525.226 164.99 537.685 151.736 551.79 140.196Z"/><path fill="#B7E4D3" d="M886.14 160.709C925.502 158.472 989.555 164.883 996.102 214.171C1002.48 262.181 967.362 315.538 940.668 352.531C896.897 413.192 842.429 466.763 786.421 516.096C668.065 620.332 535.242 708.057 393.299 776.881C319.838 812.5 239.758 844.269 158.738 858.006C124.719 863.774 75.9697 864.73 47.9893 842.509C-10.3708 796.159 62.4301 700.962 93.696 659.294C94.9928 657.262 96.8113 655.085 98.2628 653.129C107.348 640.88 117.159 629.105 126.852 617.348C129.731 627.058 132.509 636.056 135.654 645.673C130.623 653.114 125.487 664.309 121.184 672.276C108.28 696.172 86.3178 750.56 122.413 765.74C161.15 782.031 220.706 760.762 258.585 748.477C282.547 740.706 307.242 729.176 330.382 719.195C403.518 686.867 472.519 646.26 539.371 602.629C609.172 557.073 675.715 507.439 737.748 451.712C769.042 423.599 796.567 397.18 823.85 365.038C846.458 339.305 867.749 313.617 882.969 282.798C895.233 257.963 897.977 223.985 867.909 211.268C831.707 195.958 778.086 208.959 742.746 221.936C732.653 214.202 725.596 208.708 715.001 201.529C722.698 197.173 738.154 191.613 746.579 188.617C792.54 172.27 837.49 163.487 886.14 160.709Z"/><path fill="#1BA7AF" d="M876.861 443.6C880.339 471.257 881.88 497.735 879.691 525.579C879.226 531.503 879 538.839 878.135 544.643C877.199 556.25 866.163 614.278 860.385 622.432C858.904 628.296 856.069 634.545 853.898 640.199C799.02 783.129 659.655 885.915 505.498 889.065C499.476 889.188 486.621 889.57 480.803 888.567C454.879 889.36 421.616 882.993 396.422 876.91C365.141 870.154 315.772 849.786 289.334 832.413C306.493 826.114 324.087 819.658 340.936 812.477C411.668 782.327 480.494 745.809 545.826 705.291C571.361 689.455 597.998 673.365 622.527 656.248C712.432 593.509 801.384 523.183 876.861 443.6Z"/><path fill="#5BECEE" d="M396.422 876.91C398.83 876.006 418.398 873.574 422.948 872.68C440.321 869.265 454.527 864.88 470.968 858.631C507.126 844.887 539.995 827.01 573.431 807.861C611.281 785.704 649.115 761.561 683.956 734.803C727.09 701.675 769.19 666.734 807.373 627.921C819.704 615.387 831.63 602.201 842.834 589.168C847.266 584.011 876.864 545.271 878.135 544.643C877.199 556.25 866.163 614.278 860.385 622.432C858.904 628.296 856.069 634.545 853.898 640.199C799.02 783.129 659.655 885.915 505.498 889.065C499.476 889.188 486.621 889.57 480.803 888.567C454.879 889.36 421.616 882.993 396.422 876.91Z"/><path fill="#1BA7AF" d="M480.803 888.567C482.945 887.38 487.117 886.143 489.549 885.269C510.765 877.65 532.046 869.666 552.171 859.424C620.729 824.532 684.969 780.442 745.32 732.895C781.972 703.499 816.385 670.928 847.928 636.108C851.332 632.35 856.631 625.321 860.385 622.432C858.904 628.296 856.069 634.545 853.898 640.199C799.02 783.129 659.655 885.915 505.498 889.065C499.476 889.188 486.621 889.57 480.803 888.567Z"/></svg>