<?xml version="1.0" encoding="utf-8" ?><svg xmlns="http://www.w3.org/2000/svg" xmlns:xlink="http://www.w3.org/1999/xlink" width="1024" height="1024" viewBox="0 0 1024 1024"><path fill="#8A2121" d="M484.068 0L548.98 0L548.156 0.830277C548.054 0.77623 590.62 6.76143 594.918 7.43178C747.294 31.1975 884.116 129.415 958.564 264.012C986.507 314.532 1004.04 365.348 1015.47 422.088C1016.73 428.354 1023.33 480.905 1024 481.955L1024 549.563L1023 550.027C1021.43 554.866 1021.49 560.972 1020.86 566.053C1020.06 572.488 1018.98 578.892 1017.92 585.289C1015.76 598.424 1013.67 611.697 1010.81 624.701C1008.21 636.554 1004.81 648.296 1001.49 659.967C989.693 701.453 970.786 746.314 948.166 783.166C900.778 860.375 826.237 925.922 745.887 966.981C696.183 992.379 641.874 1010.4 586.521 1017.99C580.248 1018.85 573.969 1019.73 567.67 1020.38C562.3 1020.93 555.981 1020.97 550.821 1022.58C549.927 1022.86 549.436 1023.23 548.927 1024L475.07 1024L475.192 1023.35C472.367 1021.72 452.826 1020.33 447.853 1019.53C426.19 1016.04 403.639 1012.29 382.501 1006.38C342.067 995.087 303.282 979.162 266.103 959.764C254.353 953.633 237.052 942.564 226.144 935.22C155.956 887.957 93.9285 821.999 56.0044 746.009C50.1305 734.24 40.2106 715.182 36.3198 702.793C37.2704 703.49 42.8498 711.821 44.4181 713.733C55.6024 727.364 76.1765 738.561 94.0863 737.957C106.452 738.218 109.605 737.936 121.602 734.842C123.229 734.599 126.503 733.158 127.947 732.361C130.716 731.173 132.438 730.372 135.112 728.912C136.47 728.267 138.449 727.568 139.888 727.009C138.111 723.402 136.368 720.184 134.412 716.667L130.863 710.164C124.862 698.469 120.437 687.246 114.869 676.08C112.82 670.602 110.369 664.791 108.183 659.33C105.237 652.368 102.593 643.611 100.226 636.301L99.8871 634.813C98.8012 632.1 96.9991 625.772 96.4476 622.963C94.7705 617.703 93.6236 612.999 92.3199 607.65L90.9409 601.867L84.9792 602.853C65.3437 606.267 50.9567 613.618 38.8716 630.244C35.0776 635.695 33.1571 638.796 30.7343 644.942C30.1525 646.608 29.519 648.33 28.9963 650.01C28.0472 653.794 27.6187 655.764 27.2901 659.669C25.9192 665.137 26.9156 673.878 27.6643 679.414L26.8793 679.29C24.568 673.957 22.2256 664.096 20.3915 658.262C13.5144 636.389 10.0647 613.595 6.15664 591.043C4.19735 579.737 3.36793 567.41 1.25356 556.178L0 555.864L0 468.161C3.01759 466.376 3.84123 448.231 4.58386 443.431C15.3544 373.804 39.2069 306.188 75.5921 245.781C155.381 113.314 295.599 23.3803 448.814 4.15606C452.407 3.70541 482.836 0.635798 484.068 0ZM745.326 724.375C739.264 729.772 736.96 732.465 732.744 739.444C730.185 744.941 728.773 748.61 727.707 754.657C725.496 768.617 729.702 781.857 737.752 793.414C739.489 795.907 744.873 801.664 747.486 802.771C753.503 807.656 760.073 810.263 767.546 812.166C776.973 813.676 782.205 813.514 791.676 813.062C799.712 812.988 807.679 812.922 815.714 813C837.41 813.397 859.131 813.137 880.831 813.054C883.95 813.042 887.081 813.014 890.197 812.864C938.292 810.766 966.172 758.077 943.004 716.728C939.695 710.822 932.497 701.526 927.293 697.397C922.24 692.312 917.585 689.61 911.267 686.447L905.976 684.291C901.189 682.493 895.098 681.274 890.061 680.442L888.618 680.217C872.145 679.938 852.673 682.692 839.893 694.147C833.144 699.444 825.485 707.379 822.46 715.486L821.149 714.791C819.079 718.911 817.726 722.075 816.012 726.367L812.449 723.932C807.26 720.157 800.938 717.305 794.928 715.143L792.825 714.39C774.541 711.994 768.448 711.384 751.97 719.586C749.652 721.154 747.482 722.573 745.326 724.375Z"/><defs><linearGradient id="gradient_0" gradientUnits="userSpaceOnUse" x1="761.07965" y1="702.13074" x2="926.42841" y2="804.46741"><stop offset="0" stop-color="#FEFEFD" stop-opacity="0.67450982"/><stop offset="1" stop-color="#FEFFFF" stop-opacity="0.74117649"/></linearGradient></defs><path fill="url(#gradient_0)" d="M839.893 694.147C852.673 682.692 872.145 679.938 888.618 680.217L890.061 680.442C895.705 685.931 895.93 682.489 901.206 683.842C900.385 685.452 900.021 685.928 900.052 687.813C901.414 690.538 902.783 690.62 905.832 691.718C912.177 695.051 912.212 692.117 917.397 693.615C918.258 693.864 922.546 698.473 925.464 699.628L926.186 699.299C924.735 697.205 920.64 695.347 918.593 692.731L918.87 691.841C922.271 692.763 924.608 698.614 927.293 697.397C932.497 701.526 939.695 710.822 943.004 716.728C966.172 758.077 938.292 810.766 890.197 812.864C884.543 812.572 878.875 811.981 873.234 811.766C852.219 810.964 831.234 811.53 810.298 809.365C802.658 808.575 794.038 809.805 786.174 808.837C782.859 808.428 776.672 810.343 773.135 810.133C769.957 810.014 766.863 808.864 763.312 808.847L763.869 809.627L763.347 809.901C759.906 808.398 750.1 801.756 747.486 802.771C744.873 801.664 739.489 795.907 737.752 793.414C729.702 781.857 725.496 768.617 727.707 754.657L728.344 755.624C732.077 756.161 731.054 750.981 731.819 748.195C733.609 746.449 734.753 747.058 735.492 746.672C741.374 743.195 741.853 733.552 747.143 729.573C749.192 728.032 749.452 728.527 748.701 726.005C746.79 724.231 747.879 724.744 745.326 724.375C747.482 722.573 749.652 721.154 751.97 719.586C768.448 711.384 774.541 711.994 792.825 714.39L794.928 715.143C792.231 716.397 791.418 719.163 792.605 721.912C794.337 723.368 793.397 722.99 795.402 723.369C796.966 722.416 797.311 721.879 798.492 720.525C799.896 720.028 799.926 720.201 801.418 720.583C800.39 722.639 800.53 721.594 800.945 723.824L800.067 724.083L798.265 724.118C800.796 727.816 802.202 726.577 803.829 727.384C810.173 730.53 809.297 736.234 819.39 733.587C828.53 727.681 822.734 726.125 825.663 719.705C829.232 711.881 838.784 703.333 839.893 694.147Z"/><path fill="#FEFEFE" fill-opacity="0.78039217" d="M747.486 802.771C750.1 801.756 759.906 808.398 763.347 809.901L763.869 809.627L763.312 808.847C766.863 808.864 769.957 810.014 773.135 810.133C776.672 810.343 782.859 808.428 786.174 808.837C794.038 809.805 802.658 808.575 810.298 809.365C831.234 811.53 852.219 810.964 873.234 811.766C878.875 811.981 884.543 812.572 890.197 812.864C887.081 813.014 883.95 813.042 880.831 813.054C859.131 813.137 837.41 813.397 815.714 813C807.679 812.922 799.712 812.988 791.676 813.062C782.205 813.514 776.973 813.676 767.546 812.166C760.073 810.263 753.503 807.656 747.486 802.771Z"/><path fill="#FEFEFE" fill-opacity="0.55686277" d="M745.326 724.375C747.879 724.744 746.79 724.231 748.701 726.005C749.452 728.527 749.192 728.032 747.143 729.573C741.853 733.552 741.374 743.195 735.492 746.672C734.753 747.058 733.609 746.449 731.819 748.195C731.054 750.981 732.077 756.161 728.344 755.624L727.707 754.657C728.773 748.61 730.185 744.941 732.744 739.444C736.96 732.465 739.264 729.772 745.326 724.375Z"/><defs><linearGradient id="gradient_1" gradientUnits="userSpaceOnUse" x1="828.27014" y1="704.99921" x2="833.20538" y2="707.48846"><stop offset="0" stop-color="#FFFFFE" stop-opacity="0.54901963"/><stop offset="1" stop-color="white" stop-opacity="0.64313728"/></linearGradient></defs><path fill="url(#gradient_1)" d="M839.893 694.147C838.784 703.333 829.232 711.881 825.663 719.705C822.734 726.125 828.53 727.681 819.39 733.587C820.764 730.95 824.411 720.298 823.783 717.41L822.056 716.68L822.262 717.592L821.938 717.654L821.895 716.439L822.158 717.376C822.047 716.153 821.957 716.591 822.46 715.486C825.485 707.379 833.144 699.444 839.893 694.147Z"/><path fill="#FEFEFE" fill-opacity="0.5411765" d="M816.012 726.367C817.726 722.075 819.079 718.911 821.149 714.791L822.46 715.486C821.957 716.591 822.047 716.153 822.158 717.376L821.895 716.439L821.938 717.654L822.262 717.592L822.056 716.68L823.783 717.41C824.411 720.298 820.764 730.95 819.39 733.587C809.297 736.234 810.173 730.53 803.829 727.384C802.202 726.577 800.796 727.816 798.265 724.118L800.067 724.083C802.451 725.655 802.341 725.481 805.425 725.076C808.186 725.856 811.99 734.144 817.407 731.44C818.498 729.995 818.56 730.057 818.94 728.199C818.235 726.938 818.059 727.077 816.516 726.938L816.012 726.367Z"/><path fill="#FEFEFE" fill-opacity="0.42352942" d="M794.928 715.143C800.938 717.305 807.26 720.157 812.449 723.932C812.673 725.37 812.882 725.819 812.474 727.205L811.511 727.699C809.633 727.495 810.414 727.845 809.018 726.781C808.678 724.51 808.977 724.035 807.047 723.087C805.347 723.398 805.026 723.468 803.23 723.487C800.488 721.497 803.759 723.019 801.418 720.583C799.926 720.201 799.896 720.028 798.492 720.525C797.311 721.879 796.966 722.416 795.402 723.369C793.397 722.99 794.337 723.368 792.605 721.912C791.418 719.163 792.231 716.397 794.928 715.143Z"/><path fill="#FEFEFE" fill-opacity="0.54901963" d="M911.267 686.447C917.585 689.61 922.24 692.312 927.293 697.397C924.608 698.614 922.271 692.763 918.87 691.841L918.593 692.731C920.64 695.347 924.735 697.205 926.186 699.299L925.464 699.628C922.546 698.473 918.258 693.864 917.397 693.615C912.212 692.117 912.177 695.051 905.832 691.718C905.148 684.24 906.873 689.754 911.267 686.447Z"/><path fill="#FEFEFE" fill-opacity="0.56078434" d="M890.061 680.442C895.098 681.274 901.189 682.493 905.976 684.291L911.267 686.447C906.873 689.754 905.148 684.24 905.832 691.718C902.783 690.62 901.414 690.538 900.052 687.813C900.021 685.928 900.385 685.452 901.206 683.842C895.93 682.489 895.705 685.931 890.061 680.442Z"/><path fill="#FEFEFE" fill-opacity="0.47450981" d="M801.418 720.583C803.759 723.019 800.488 721.497 803.23 723.487C805.026 723.468 805.347 723.398 807.047 723.087C808.977 724.035 808.678 724.51 809.018 726.781C810.414 727.845 809.633 727.495 811.511 727.699L812.474 727.205C812.882 725.819 812.673 725.37 812.449 723.932L816.012 726.367L816.516 726.938C818.059 727.077 818.235 726.938 818.94 728.199C818.56 730.057 818.498 729.995 817.407 731.44C811.99 734.144 808.186 725.856 805.425 725.076C802.341 725.481 802.451 725.655 800.067 724.083L800.945 723.824C800.53 721.594 800.39 722.639 801.418 720.583Z"/><path fill="#FCA814" d="M468.489 100.856C516.592 94.2581 567.122 99.3018 614.066 110.841C620.965 112.337 640.718 117.5 646.708 120.634C680.531 131.927 713.917 149.531 742.996 170.006C748.092 173.594 757.01 179.378 761.178 183.518C764.589 185.839 783.809 201.2 786.155 204.051C814.639 227.584 846.723 268.357 866.295 300.027C897.07 349.825 915.7 411.278 922.433 469.113C925.82 499.714 924.626 535.239 920.62 565.627C919.594 574.215 918.147 582.642 916.648 591.158C910.245 623.926 901.774 649.505 888.618 680.217C872.145 679.938 852.673 682.692 839.893 694.147C833.144 699.444 825.485 707.379 822.46 715.486L821.149 714.791C819.079 718.911 817.726 722.075 816.012 726.367L812.449 723.932C807.26 720.157 800.938 717.305 794.928 715.143L792.825 714.39C774.541 711.994 768.448 711.384 751.97 719.586C749.681 718.715 738.49 719.431 735.328 719.489C647.898 721.079 562.296 695.35 488.782 648.357C473.96 638.882 460.795 627.285 446.599 616.952C400.724 583.488 348.292 563.57 293.456 550.453L293.121 550.177C287.187 522.521 282.919 493.649 283.17 465.303C283.176 464.567 283.258 464.806 284 464.202L283.018 463.846C283.04 459.655 283.308 446.904 282.654 443.423C279.587 442.65 276.064 442.323 272.908 441.914C241.022 437.777 208.776 433.91 176.571 435.407C172.431 435.6 167.386 436.086 163.36 435.897L162.38 435.843C164.373 426.82 165.735 414.933 167.892 406.025C172.488 387.04 182.122 349.831 192.226 334.218C194.126 335.174 195.025 335.826 196.786 337.057C209.114 358.138 222.689 354.026 244.095 354.561C260.961 354.982 278.495 353.925 295.255 354.537L295.585 354.476C299.191 335.575 311.122 298.013 319.565 280.882L319.563 280.666C321.571 277.732 324.158 270.38 325.898 266.786C355.754 205.104 400.15 148.669 456.654 109.355C460.035 107.003 465.913 103.808 468.489 100.856Z"/><path fill="#FED151" d="M284 464.202C299.67 467.679 315.896 471.035 331.271 475.589C376.472 488.991 419.237 509.96 458.221 536.396C480.72 551.654 502.207 569.292 525.253 583.677C635.935 652.757 786.474 662.042 901.83 598.938C906.707 596.27 911.65 593.612 916.648 591.158C910.245 623.926 901.774 649.505 888.618 680.217C872.145 679.938 852.673 682.692 839.893 694.147C833.144 699.444 825.485 707.379 822.46 715.486L821.149 714.791C819.079 718.911 817.726 722.075 816.012 726.367L812.449 723.932C807.26 720.157 800.938 717.305 794.928 715.143L792.825 714.39C774.541 711.994 768.448 711.384 751.97 719.586C749.681 718.715 738.49 719.431 735.328 719.489C647.898 721.079 562.296 695.35 488.782 648.357C473.96 638.882 460.795 627.285 446.599 616.952C400.724 583.488 348.292 563.57 293.456 550.453L293.121 550.177C287.187 522.521 282.919 493.649 283.17 465.303C283.176 464.567 283.258 464.806 284 464.202Z"/><path fill="#EF8718" d="M792.825 714.39C796.896 712.444 819.388 710.458 822.693 711.828C822.112 713.236 821.964 713.498 821.149 714.791C819.079 718.911 817.726 722.075 816.012 726.367L812.449 723.932C807.26 720.157 800.938 717.305 794.928 715.143L792.825 714.39Z"/><path fill="#FED151" d="M646.708 120.634C680.531 131.927 713.917 149.531 742.996 170.006C748.092 173.594 757.01 179.378 761.178 183.518C770.755 215.866 770.013 246.088 749.321 274.168C697.005 345.163 584.7 315.916 572.509 229.055C568.821 202.777 576.125 176.675 591.993 155.526C603.175 140.619 627.94 123.024 646.708 120.634Z"/><path fill="#EF8718" d="M192.226 334.218C194.126 335.174 195.025 335.826 196.786 337.057C209.114 358.138 222.689 354.026 244.095 354.561C260.961 354.982 278.495 353.925 295.255 354.537C294.667 359.713 292.438 366 291.332 371.229C286.306 394.986 284.069 419.203 282.933 443.428C287.692 444.926 293.439 445.929 298.348 447.034C341.882 456.834 384.018 471.599 423.563 492.362C429.446 495.451 434.966 499.682 440.719 503.036C475.662 522.742 509.11 551.331 543.389 571.546C654.187 636.887 800.248 638.59 910.559 571.334C913.18 569.736 917.855 566.8 920.62 565.627C919.594 574.215 918.147 582.642 916.648 591.158C911.65 593.612 906.707 596.27 901.83 598.938C786.474 662.042 635.935 652.757 525.253 583.677C502.207 569.292 480.72 551.654 458.221 536.396C419.237 509.96 376.472 488.991 331.271 475.589C315.896 471.035 299.67 467.679 284 464.202L283.018 463.846C283.04 459.655 283.308 446.904 282.654 443.423C279.587 442.65 276.064 442.323 272.908 441.914C241.022 437.777 208.776 433.91 176.571 435.407C172.431 435.6 167.386 436.086 163.36 435.897L162.38 435.843C164.373 426.82 165.735 414.933 167.892 406.025C172.488 387.04 182.122 349.831 192.226 334.218Z"/><path fill="#EF8718" d="M614.066 110.841C620.965 112.337 640.718 117.5 646.708 120.634C627.94 123.024 603.175 140.619 591.993 155.526C576.125 176.675 568.821 202.777 572.509 229.055C584.7 315.916 697.005 345.163 749.321 274.168C770.013 246.088 770.755 215.866 761.178 183.518C764.589 185.839 783.809 201.2 786.155 204.051C784.92 207.13 785.967 218.336 785.68 222.28C783.844 247.564 775.811 270.839 759.803 290.26C739.255 315.191 712.162 329.759 679.929 332.152C647.71 334.06 618.027 325.064 593.697 304.172C540.371 258.717 539.204 177.885 590.292 130.228C596.561 124.38 609.782 116.349 614.066 110.841Z"/><path fill="#FED151" d="M319.565 280.882C332.317 284.226 337.548 288.143 346.006 297.925C361.544 290.02 381.254 288.255 397.84 293.172C415.197 298.317 428.859 316.335 422.26 334.595C412.793 360.793 383.644 354.892 362.225 355.063C339.673 355.243 317.919 355.272 295.585 354.476C299.191 335.575 311.122 298.013 319.565 280.882Z"/><path fill="#FED151" d="M472.232 332.144C499.793 328.655 524.986 348.112 528.578 375.66C532.169 403.209 512.807 428.474 485.272 432.169C457.591 435.883 432.163 416.395 428.552 388.701C424.941 361.006 444.524 335.651 472.232 332.144Z"/><path fill="#FED151" d="M850.446 400.442C873.02 400.324 891.406 418.546 891.491 441.12C891.575 463.695 873.325 482.053 850.75 482.103C828.224 482.153 809.914 463.951 809.83 441.425C809.746 418.899 827.92 400.561 850.446 400.442Z"/><path fill="#FED151" d="M698.121 506.489C714.089 503.563 729.411 514.122 732.361 530.085C735.311 546.049 724.777 561.386 708.818 564.361C692.824 567.343 677.446 556.78 674.489 540.782C671.532 524.783 682.118 509.421 698.121 506.489Z"/><path fill="#EF8718" d="M484.068 0L548.98 0L548.156 0.830277C548.054 0.77623 590.62 6.76143 594.918 7.43178C747.294 31.1975 884.116 129.415 958.564 264.012C986.507 314.532 1004.04 365.348 1015.47 422.088C1016.73 428.354 1023.33 480.905 1024 481.955L1024 549.563L1023 550.027C1021.43 554.866 1021.49 560.972 1020.86 566.053C1020.06 572.488 1018.98 578.892 1017.92 585.289C1015.76 598.424 1013.67 611.697 1010.81 624.701C1008.21 636.554 1004.81 648.296 1001.49 659.967C989.693 701.453 970.786 746.314 948.166 783.166C900.778 860.375 826.237 925.922 745.887 966.981C696.183 992.379 641.874 1010.4 586.521 1017.99C580.248 1018.85 573.969 1019.73 567.67 1020.38C562.3 1020.93 555.981 1020.97 550.821 1022.58C549.927 1022.86 549.436 1023.23 548.927 1024L475.07 1024L475.192 1023.35C472.367 1021.72 452.826 1020.33 447.853 1019.53C426.19 1016.04 403.639 1012.29 382.501 1006.38C342.067 995.087 303.282 979.162 266.103 959.764C254.353 953.633 237.052 942.564 226.144 935.22C155.956 887.957 93.9285 821.999 56.0044 746.009C50.1305 734.24 40.2106 715.182 36.3198 702.793C37.2704 703.49 42.8498 711.821 44.4181 713.733C55.6024 727.364 76.1765 738.561 94.0863 737.957C106.452 738.218 109.605 737.936 121.602 734.842C123.229 734.599 126.503 733.158 127.947 732.361C130.716 731.173 132.438 730.372 135.112 728.912C136.47 728.267 138.449 727.568 139.888 727.009C145.664 738.297 154.764 750.503 161.951 761.006C214.728 838.132 299.68 898.079 388.649 925.101C492.134 956.533 610.75 945.392 706.106 894.572C738.963 877.061 792.368 842.706 815.714 813C837.41 813.397 859.131 813.137 880.831 813.054C883.95 813.042 887.081 813.014 890.197 812.864C938.292 810.766 966.172 758.077 943.004 716.728C939.695 710.822 932.497 701.526 927.293 697.397C922.24 692.312 917.585 689.61 911.267 686.447L905.976 684.291C911.681 673.919 918.367 652.376 921.918 640.797C937.274 590.732 945.41 538.235 941.421 485.858C939.002 454.088 934.5 422.78 925.32 392.249C896.063 294.944 834.071 210.242 750.097 153.002C657.853 89.6723 543.709 67.1765 433.877 87.4854C321.139 108.866 220.105 177.271 156.148 272.191C108.407 343.045 80.2705 427.596 81.0679 513.442C81.304 543.784 85.1553 572.229 90.9409 601.867L84.9792 602.853C65.3437 606.267 50.9567 613.618 38.8716 630.244C35.0776 635.695 33.1571 638.796 30.7343 644.942C30.1525 646.608 29.519 648.33 28.9963 650.01C28.0472 653.794 27.6187 655.764 27.2901 659.669C25.9192 665.137 26.9156 673.878 27.6643 679.414L26.8793 679.29C24.568 673.957 22.2256 664.096 20.3915 658.262C13.5144 636.389 10.0647 613.595 6.15664 591.043C4.19735 579.737 3.36793 567.41 1.25356 556.178L0 555.864L0 468.161C3.01759 466.376 3.84123 448.231 4.58386 443.431C15.3544 373.804 39.2069 306.188 75.5921 245.781C155.381 113.314 295.599 23.3803 448.814 4.15606C452.407 3.70541 482.836 0.635798 484.068 0Z"/><path fill="#FCA814" d="M293.456 550.453C348.292 563.57 400.724 583.488 446.599 616.952C460.795 627.285 473.96 638.882 488.782 648.357C562.296 695.35 647.898 721.079 735.328 719.489C738.49 719.431 749.681 718.715 751.97 719.586C749.652 721.154 747.482 722.573 745.326 724.375C739.264 729.772 736.96 732.465 732.744 739.444C730.185 744.941 728.773 748.61 727.707 754.657C725.496 768.617 729.702 781.857 737.752 793.414C739.489 795.907 744.873 801.664 747.486 802.771C753.503 807.656 760.073 810.263 767.546 812.166L766.966 812.92C758.248 816.97 722.664 818.201 712.369 818.263C659.145 818.431 603.632 807.164 554.837 785.885C519.017 770.364 485.443 748.2 450.217 731.822C427.183 721.112 394.608 707.328 370.027 701.688L368.979 701.186C360.551 698.897 347.681 697.097 338.916 695.757C295.992 689.191 248.373 691.484 205.985 701.042C202.355 692.853 197.219 683.903 193.317 675.167C175.698 635.712 166.537 601.49 160.867 558.546C204.337 555.809 258.123 562.969 300.35 573.154C297.8 565.425 295.664 558.291 293.456 550.453Z"/><path fill="#EF8718" d="M293.456 550.453C348.292 563.57 400.724 583.488 446.599 616.952C460.795 627.285 473.96 638.882 488.782 648.357C562.296 695.35 647.898 721.079 735.328 719.489C738.49 719.431 749.681 718.715 751.97 719.586C749.652 721.154 747.482 722.573 745.326 724.375C739.264 729.772 736.96 732.465 732.744 739.444C660.245 739.311 596.918 726.341 531.326 694.666C514.342 686.464 497.366 678.181 481.599 667.658C462.842 655.07 445.817 640.331 427.059 627.654C387.888 601.181 346.146 585.128 300.691 573.363C300.446 576.204 304.761 587.491 305.878 590.613C319.118 627.637 339.205 665.024 364.128 695.48C365.491 697.145 367.788 699.562 368.979 701.186C360.551 698.897 347.681 697.097 338.916 695.757C295.992 689.191 248.373 691.484 205.985 701.042C202.355 692.853 197.219 683.903 193.317 675.167C175.698 635.712 166.537 601.49 160.867 558.546C204.337 555.809 258.123 562.969 300.35 573.154C297.8 565.425 295.664 558.291 293.456 550.453Z"/><path fill="#FED151" d="M241.436 578.05C260.371 576.694 276.823 590.94 278.186 609.875C279.55 628.81 265.309 645.267 246.375 646.638C227.43 648.009 210.963 633.759 209.599 614.814C208.234 595.869 222.49 579.407 241.436 578.05Z"/><path fill="#EF8718" d="M370.027 701.688C394.608 707.328 427.183 721.112 450.217 731.822C485.443 748.2 519.017 770.364 554.837 785.885C603.632 807.164 659.145 818.431 712.369 818.263C722.664 818.201 758.248 816.97 766.966 812.92L767.546 812.166C776.973 813.676 782.205 813.514 791.676 813.062C787.833 816.632 773.594 830.021 770.128 831.742C754.16 844.545 736.598 857.964 718.233 867.178C653.649 905.037 586.317 924.979 510.999 925.621C496.946 925.74 477.972 924.959 464.107 922.556C461.167 919.983 446.646 916.84 441.863 915.081C360.592 885.202 291.111 826.193 239.996 757.114C231.471 745.594 224.088 732.813 216.817 720.729C273.823 709.63 335.172 712.014 390.949 728.338C390.711 726.867 372.761 705.44 370.027 701.688Z"/><path fill="#FCA814" d="M393.752 729.305C411.835 734.888 428.911 742.355 445.698 751.115C454.532 755.725 465.875 760.301 474.125 765.464C557.41 817.577 655.717 852.203 754.791 833.95C758.714 833.227 766.423 831.227 770.128 831.742C754.16 844.545 736.598 857.964 718.233 867.178C712.534 866.564 705.808 867.362 699.992 867.338C690.216 867.296 678.721 867.963 669.089 867.211C622.722 863.31 572.539 850.476 531.176 829.15C486.304 806.016 443.288 779.614 407.533 743.864C405.054 741.386 394.684 732.113 393.752 729.305Z"/><path fill="#FED151" d="M311.844 753.126C328.218 750.404 343.679 761.532 346.294 777.924C348.909 794.316 337.679 809.703 321.271 812.211C305.014 814.695 289.799 803.591 287.208 787.351C284.617 771.11 295.621 755.824 311.844 753.126Z"/><path fill="#EB6003" d="M159.35 537.436C202.644 536.463 243.552 539.383 285.835 548.821C287.947 549.292 291.073 550.018 293.121 550.177L293.456 550.453C295.664 558.291 297.8 565.425 300.35 573.154C258.123 562.969 204.337 555.809 160.867 558.546C166.537 601.49 175.698 635.712 193.317 675.167C197.219 683.903 202.355 692.853 205.985 701.042C248.373 691.484 295.992 689.191 338.916 695.757C347.681 697.097 360.551 698.897 368.979 701.186L370.027 701.688C372.761 705.44 390.711 726.867 390.949 728.338C335.172 712.014 273.823 709.63 216.817 720.729C224.088 732.813 231.471 745.594 239.996 757.114C291.111 826.193 360.592 885.202 441.863 915.081C446.646 916.84 461.167 919.983 464.107 922.556C455.955 922.308 440.26 919.167 432.228 917.521C336.251 897.845 247.695 843.869 187.258 766.608C179.306 756.442 172.127 745.454 165.062 734.587C162.309 731.056 156.353 720.086 153.996 715.94C146.742 703.041 139.22 689.742 133.467 676.092C118.214 639.897 107.494 603.866 102.18 564.924C101.271 557.899 100.707 550.848 100.056 543.794C118.931 540.839 139.98 537.632 159.125 537.56L159.35 537.436Z"/><path fill="#E04600" d="M100.056 543.794C118.931 540.839 139.98 537.632 159.125 537.56C160.07 542.173 160.587 552.954 161.172 558.161C156.022 559.344 141.433 560.005 135.282 560.662C124.478 561.815 112.777 564.012 102.18 564.924C101.271 557.899 100.707 550.848 100.056 543.794Z"/><path fill="#E04600" d="M153.996 715.94C160.336 714.016 166.66 711.546 172.96 709.709C183.699 706.576 195.189 703.543 206.133 701.193C209.752 707.639 213.046 714.268 216.687 720.643C209.07 722.129 169.96 730.792 165.062 734.587C162.309 731.056 156.353 720.086 153.996 715.94Z"/><path fill="#FCA814" d="M185.593 262.365C188.425 261.519 192.02 257.416 194.769 255.894C212.505 246.072 228.645 246.542 247.89 249.965L248.017 250.881C269.087 253.861 278.515 264.554 285.567 283.907C299.33 278.693 305.186 277.184 319.563 280.666L319.565 280.882C311.122 298.013 299.191 335.575 295.585 354.476L295.255 354.537C278.495 353.925 260.961 354.982 244.095 354.561C222.689 354.026 209.114 358.138 196.786 337.057C195.025 335.826 194.126 335.174 192.226 334.218C180.733 324.771 175.273 310.45 173.493 296.037C172.533 288.258 174.987 283.02 176.215 275.602L176.29 275.125C179.228 270.141 181.808 266.703 185.593 262.365Z"/><path fill="#EF8718" d="M185.593 262.365C188.425 261.519 192.02 257.416 194.769 255.894C212.505 246.072 228.645 246.542 247.89 249.965L248.017 250.881C230.717 253.399 223.45 259.36 212.691 273.393C201.909 287.455 191.835 310.514 194.722 328.549C195.185 331.442 196.039 334.199 196.786 337.057C195.025 335.826 194.126 335.174 192.226 334.218C180.733 324.771 175.273 310.45 173.493 296.037C172.533 288.258 174.987 283.02 176.215 275.602L176.29 275.125C179.228 270.141 181.808 266.703 185.593 262.365Z"/><path fill="#EF8718" d="M428.089 107.211C440.945 104.331 455.325 101.623 468.489 100.856C465.913 103.808 460.035 107.003 456.654 109.355C400.15 148.669 355.754 205.104 325.898 266.786C324.158 270.38 321.571 277.732 319.563 280.666C305.186 277.184 299.33 278.693 285.567 283.907C278.515 264.554 269.087 253.861 248.017 250.881L247.89 249.965C254.345 238.926 263.118 228.311 271.282 219.168C313.93 171.405 364.737 131.506 425.361 109.434C426.542 109.004 427.299 108.198 428.089 107.211Z"/><path fill="#FCA814" d="M158.997 455.498C168.866 454.138 177.902 454.5 187.77 454.373C220.589 453.95 250.852 458.197 283.018 463.846L284 464.202C283.258 464.806 283.176 464.567 283.17 465.303C282.919 493.649 287.187 522.521 293.121 550.177C291.073 550.018 287.947 549.292 285.835 548.821C243.552 539.383 202.644 536.463 159.35 537.436C156.519 528.762 158.345 467.44 158.997 455.498Z"/><path fill="#EB6003" d="M176.29 275.125L176.215 275.602C174.987 283.02 172.533 288.258 173.493 296.037C175.273 310.45 180.733 324.771 192.226 334.218C182.122 349.831 172.488 387.04 167.892 406.025C165.735 414.933 164.373 426.82 162.38 435.843L163.36 435.897C167.386 436.086 172.431 435.6 176.571 435.407C208.776 433.91 241.022 437.777 272.908 441.914C276.064 442.323 279.587 442.65 282.654 443.423C283.308 446.904 283.04 459.655 283.018 463.846C250.852 458.197 220.589 453.95 187.77 454.373C177.902 454.5 168.866 454.138 158.997 455.498L158.588 455.39C142.968 455.782 126.811 458.756 111.244 460.405C108.313 460.716 104.834 461.109 101.958 461.709C103.164 454.616 104.182 447.269 105.257 440.14C107.411 430.589 108.949 420.963 111.522 411.453C121.458 374.733 135.645 338.796 155.683 306.371C162.627 295.135 167.467 285.58 176.29 275.125Z"/><path fill="#E04600" d="M105.257 440.14C109.583 440.115 114.767 439.49 119.103 439.024C133.562 437.471 147.553 436.055 162.136 436.243C161.476 439.578 159.639 454.115 158.588 455.39C142.968 455.782 126.811 458.756 111.244 460.405C108.313 460.716 104.834 461.109 101.958 461.709C103.164 454.616 104.182 447.269 105.257 440.14Z"/><path fill="#EB6003" d="M185.593 262.365C188.714 256.53 200.74 243.265 205.406 237.947C255.924 180.377 322.234 137.566 395.713 115.701C406.074 112.618 417.481 109.221 428.089 107.211C427.299 108.198 426.542 109.004 425.361 109.434C364.737 131.506 313.93 171.405 271.282 219.168C263.118 228.311 254.345 238.926 247.89 249.965C228.645 246.542 212.505 246.072 194.769 255.894C192.02 257.416 188.425 261.519 185.593 262.365Z"/><path fill="#EF8718" d="M158.588 455.39L158.997 455.498C158.345 467.44 156.519 528.762 159.35 537.436L159.125 537.56C139.98 537.632 118.931 540.839 100.056 543.794C99.9195 539.113 99.5963 534.177 99.2991 529.494C97.8429 506.553 99.7563 484.509 101.958 461.709C104.834 461.109 108.313 460.716 111.244 460.405C126.811 458.756 142.968 455.782 158.588 455.39Z"/><defs><linearGradient id="gradient_2" gradientUnits="userSpaceOnUse" x1="113.98935" y1="659.00775" x2="37.913658" y2="703.2323"><stop offset="0" stop-color="#FFFFFE" stop-opacity="0.4627451"/><stop offset="1" stop-color="#FEFEFE" stop-opacity="0.65882355"/></linearGradient></defs><path fill="url(#gradient_2)" d="M27.6643 679.414L28.2691 681.121C32.2875 680.607 32.6828 671.432 33.0656 668.228C33.4829 664.736 35.9498 656.392 35.2166 653.451L33.6048 655.739L32.9963 655.643C32.2926 653.585 32.4225 652.067 32.3912 649.908C34.0109 649.052 34.1914 649.098 34.9655 647.36L34.7358 647.802L35.0342 648.217C34.9518 649.557 35.0295 650.23 35.1301 651.558L35.745 651.443C38.3839 648.514 36.8105 644.584 41.0724 642.165C43.4808 640.798 40.1735 637.074 42.0428 634.965C46.0527 630.44 49.6657 626.732 52.726 621.409C51.4709 622.003 50.1273 623.139 48.9779 624.01C51.0368 621.376 60.8698 610.683 64.0448 614.639C70.1081 613.064 72.1801 613.482 76.0861 608.831C76.5146 608.32 81.9291 608.518 82.7093 607.802C83.9664 606.648 83.4786 606.193 85.2087 605.811C87.5084 608.119 87.3453 610.244 87.2407 613.267C87.9605 614.194 89.7959 616.509 90.1684 617.518C91.1082 620.064 91.6916 624.079 93.6319 625.994L94.391 625.631C95.0624 624.251 95.1331 623.864 96.4476 622.963C96.9991 625.772 98.8012 632.1 99.8871 634.813L98.8849 635.97C97.768 635.435 98.286 635.743 97.6506 633.972C95.7247 634.918 96.0739 637.59 97.2275 639.041L98.0448 639.025C98.6028 638.148 98.7904 637.786 99.2293 636.841L100.226 636.301C102.593 643.611 105.237 652.368 108.183 659.33C105.626 663.603 108.916 662.286 104.737 663.836L104.528 664.642C106.064 665.084 106.058 664.883 107.726 664.594L108.411 664.977L107.956 665.41C107.382 665.967 106.995 666.39 106.468 666.982C106.472 673.175 108.3 670.193 109.495 674.781L111.287 674.092C111.329 675.324 111.368 674.86 110.915 676.061L111.425 676.36C113.625 675.677 113.18 676.249 114.869 676.08C120.437 687.246 124.862 698.469 130.863 710.164C129.346 711.367 128.893 711.537 128.273 713.391C128.379 716.095 130.95 716.271 130.615 718.978C129.938 724.44 120.503 726.913 127.947 732.361C126.503 733.158 123.229 734.599 121.602 734.842C121.553 730.858 118.782 726.785 114.549 727.571C107.648 728.852 103.812 730.393 96.639 730.255C95.1156 731.011 93.5843 731.629 92.3389 732.761C94.5863 733.679 98.43 732.485 99.7172 733.328L98.773 734.497L99.0367 735.91C97.4554 737.386 94.8501 736.921 92.7735 736.78L94.1933 736.452L94.1198 735.962C92.5706 735.906 92.5686 735.778 91.2368 736.495L91.2426 737.37C92.2107 737.543 93.1506 737.669 94.0863 737.957C76.1765 738.561 55.6024 727.364 44.4181 713.733C42.8498 711.821 37.2704 703.49 36.3198 702.793C34.0964 700.102 32.2524 691.818 30.7062 688.257C29.4825 685.439 27.8448 682.133 26.8793 679.29L27.6643 679.414Z"/><path fill="#FEFEFE" fill-opacity="0.35294119" d="M38.8716 630.244C50.9567 613.618 65.3437 606.267 84.9792 602.853C89.3419 605.022 87.499 610.025 91.0801 609.292C91.7436 608.551 91.9206 608.513 92.3199 607.65C93.6236 612.999 94.7705 617.703 96.4476 622.963C95.1331 623.864 95.0624 624.251 94.391 625.631L93.6319 625.994C91.6916 624.079 91.1082 620.064 90.1684 617.518C89.7959 616.509 87.9605 614.194 87.2407 613.267C87.3453 610.244 87.5084 608.119 85.2087 605.811C83.4786 606.193 83.9664 606.648 82.7093 607.802C81.9291 608.518 76.5146 608.32 76.0861 608.831C72.1801 613.482 70.1081 613.064 64.0448 614.639C60.8698 610.683 51.0368 621.376 48.9779 624.01C50.1273 623.139 51.4709 622.003 52.726 621.409C49.6657 626.732 46.0527 630.44 42.0428 634.965C40.1735 637.074 43.4808 640.798 41.0724 642.165C36.8105 644.584 38.3839 648.514 35.745 651.443L35.1301 651.558C35.0295 650.23 34.9518 649.557 35.0342 648.217L34.7358 647.802L34.9655 647.36C34.1914 649.098 34.0109 649.052 32.3912 649.908C32.4225 652.067 32.2926 653.585 32.9963 655.643L33.6048 655.739L35.2166 653.451C35.9498 656.392 33.4829 664.736 33.0656 668.228C32.6828 671.432 32.2875 680.607 28.2691 681.121L27.6643 679.414C26.9156 673.878 25.9192 665.137 27.2901 659.669L27.4835 660.047L27.8812 660.145L27.8856 660.129C31.2669 658.962 30.603 652.684 28.9963 650.01C29.519 648.33 30.1525 646.608 30.7343 644.942C31.7434 645.303 31.1823 645.155 32.4315 645.331C35.3479 642.817 39.9413 637.137 40.4793 633.193C40.6889 631.657 39.8599 631.299 38.8716 630.244Z"/><path fill="#FEFEFE" fill-opacity="0.25490198" d="M96.639 730.255C103.812 730.393 107.648 728.852 114.549 727.571C118.782 726.785 121.553 730.858 121.602 734.842C109.605 737.936 106.452 738.218 94.0863 737.957C93.1506 737.669 92.2107 737.543 91.2426 737.37L91.2368 736.495C92.5686 735.778 92.5706 735.906 94.1198 735.962L94.1933 736.452L92.7735 736.78C94.8501 736.921 97.4554 737.386 99.0367 735.91L98.773 734.497L99.7172 733.328C98.43 732.485 94.5863 733.679 92.3389 732.761C93.5843 731.629 95.1156 731.011 96.639 730.255Z"/><path fill="#FEFEFE" fill-opacity="0.36862746" d="M130.863 710.164L134.412 716.667C131.775 722.121 132.49 723.871 135.112 728.912C132.438 730.372 130.716 731.173 127.947 732.361C120.503 726.913 129.938 724.44 130.615 718.978C130.95 716.271 128.379 716.095 128.273 713.391C128.893 711.537 129.346 711.367 130.863 710.164Z"/><path fill="#FEFEFE" fill-opacity="0.54901963" d="M108.183 659.33C110.369 664.791 112.82 670.602 114.869 676.08C113.18 676.249 113.625 675.677 111.425 676.36L110.915 676.061C111.368 674.86 111.329 675.324 111.287 674.092L109.495 674.781C108.3 670.193 106.472 673.175 106.468 666.982C106.995 666.39 107.382 665.967 107.956 665.41L108.411 664.977L107.726 664.594C106.058 664.883 106.064 665.084 104.528 664.642L104.737 663.836C108.916 662.286 105.626 663.603 108.183 659.33Z"/><path fill="#FEFEFE" fill-opacity="0.23137255" d="M38.8716 630.244C39.8599 631.299 40.6889 631.657 40.4793 633.193C39.9413 637.137 35.3479 642.817 32.4315 645.331C31.1823 645.155 31.7434 645.303 30.7343 644.942C33.1571 638.796 35.0776 635.695 38.8716 630.244Z"/><path fill="#FEFEFE" fill-opacity="0.090196081" d="M84.9792 602.853L90.9409 601.867L92.3199 607.65C91.9206 608.513 91.7436 608.551 91.0801 609.292C87.499 610.025 89.3419 605.022 84.9792 602.853Z"/><path fill="#FEFEFE" fill-opacity="0.28235295" d="M28.9963 650.01C30.603 652.684 31.2669 658.962 27.8856 660.129L27.8812 660.145L27.4835 660.047L27.2901 659.669C27.6187 655.764 28.0472 653.794 28.9963 650.01Z"/><path fill="#FEFEFE" fill-opacity="0.43137255" d="M100.226 636.301L99.2293 636.841C98.7904 637.786 98.6028 638.148 98.0448 639.025L97.2275 639.041C96.0739 637.59 95.7247 634.918 97.6506 633.972C98.286 635.743 97.768 635.435 98.8849 635.97L99.8871 634.813L100.226 636.301Z"/></svg>